<svg width="52" height="39" viewBox="0 0 52 39" fill="none" xmlns="http://www.w3.org/2000/svg">
<rect x="1.21591" y="1.20076" width="49.947" height="36.7348" rx="3.375" fill="#D3C5C2" stroke="black" stroke-width="1.25"/>
<path d="M0.590912 13.375H16.2803" stroke="black"/>
<path d="M36.0985 37.7348L35.2727 35.2714L34.447 32.808V30.3446V27.8812L35.2727 25.3485L34.447 21.3121V18.8487L34.447 16.3852L35.8232 13.1273" stroke="black"/>
<path d="M15.4545 38.5606L16.2803 36.0807L17.1061 33.6007V31.1208L17.1061 28.6408L16.2803 25.3485L17.1061 22.0276V19.5477V17.0677L16.2803 12.9621" stroke="black"/>
<path d="M15.4545 1.40152L17.1061 4.8139V7.37385V9.93379L16.2803 13.3618" stroke="black"/>
<path d="M35.4469 13.375H51.7879" stroke="black"/>
<path d="M0.590912 24.9356H16.7022" stroke="black"/>
<path d="M17.1061 32.7803L21.2349 33.6061H26.1894H30.3182L34.447 32.7803" stroke="black"/>
<path d="M17.1061 6.35606L21.2349 5.53031L26.1894 5.53031L30.3182 5.53031L34.447 6.35606" stroke="black"/>
<path d="M37.75 1.40152L36.0985 3.87879L34.447 6.35606V8.00758" stroke="black"/>
<line x1="35.2727" y1="24.8485" x2="51.7879" y2="24.8485" stroke="black"/>
</svg>
