<svg width="86" height="54" viewBox="0 0 86 54" fill="none" xmlns="http://www.w3.org/2000/svg">
<path d="M27.1818 52.4811C41.3467 52.4811 52.8295 40.9982 52.8295 26.8333C52.8295 12.6685 41.3467 1.18561 27.1818 1.18561C13.017 1.18561 1.53409 12.6685 1.53409 26.8333C1.53409 40.9982 13.017 52.4811 27.1818 52.4811Z" fill="#FF0000" stroke="white" stroke-width="1.75"/>
<path d="M58.5606 52.4811C72.7254 52.4811 84.2083 40.9982 84.2083 26.8333C84.2083 12.6685 72.7254 1.18561 58.5606 1.18561C44.3958 1.18561 32.9129 12.6685 32.9129 26.8333C32.9129 40.9982 44.3958 52.4811 58.5606 52.4811Z" fill="#FF9900" stroke="white" stroke-width="1.75"/>
<ellipse cx="27.1818" cy="26.8333" rx="24.7727" ry="24.7727" fill="#F50000"/>
<path fill-rule="evenodd" clip-rule="evenodd" d="M42.8712 46.0054C48.4162 41.4623 51.9545 34.561 51.9545 26.8333C51.9545 19.1056 48.4162 12.2044 42.8712 7.66128C37.3262 12.2044 33.7879 19.1056 33.7879 26.8333C33.7879 34.561 37.3262 41.4623 42.8712 46.0054Z" fill="#FF4409"/>
</svg>
