<svg width="279" height="205" viewBox="0 0 279 205" fill="none" xmlns="http://www.w3.org/2000/svg">
<path fill-rule="evenodd" clip-rule="evenodd" d="M61.3485 67.0076L63 66.1818L64.6515 65.356V62.8788V59.5757L65.4773 57.9242L67.1288 54.6212L69.6061 52.1439L72.0833 50.4924L75.3864 49.6667L78.6894 50.4924L81.1667 52.1439H81.9924L83.6439 49.6667L86.1212 46.3636L86.947 43.8864L87.7727 41.4091V38.9318L86.947 34.803V31.5L87.7727 28.197L89.4242 25.7197L91.0758 23.2424L93.553 22.4167L96.0303 21.5909L98.5076 20.7651L100.985 19.9394L103.462 18.2879L105.939 15.8106L106.765 13.3333H109.242L111.72 12.5076L115.023 10.856L117.5 9.20453L119.152 7.55302L121.629 5.9015C121.904 5.62625 122.785 5.07574 124.106 5.07574C125.427 5.07574 128.51 4.52524 129.886 4.24998H131.538L133.189 5.07574H135.667H137.318L139.795 5.9015H143.098L146.402 5.07574L150.53 2.59848L153.833 0.94696L157.962 0.121201H160.439C161.1 0.121201 162.366 0.671707 162.917 0.94696L163.742 1.77272L166.22 3.42422L167.045 5.07574L167.871 6.72726V8.37878L168.697 10.0303V12.5076L169.523 13.3333L171.174 14.9848H172H172.826H174.477L176.955 15.8106H179.432H180.258L183.561 14.9848L186.864 13.3333L189.341 10.856L192.644 10.0303L195.121 10.856L197.598 11.6818L200.902 12.5076L203.379 14.9848L205.03 19.1136L205.856 23.2424V25.7197L205.03 29.8485L205.856 31.5L209.985 35.6288L212.462 38.106L214.114 39.7576L215.765 42.2348L217.417 45.5379L218.242 48.8409L216.591 51.3182L214.939 53.7954L215.765 56.2727L217.417 58.75L220.72 57.9242H223.197H226.5L229.803 58.75L232.28 59.5757L235.583 60.4015L238.061 62.053L240.538 63.7045L242.189 64.5303L243.841 66.1818L246.318 68.6591L247.97 70.3106L248.795 73.6136V76.9167L247.97 79.3939L247.144 82.697L246.318 84.3485L247.144 86L248.795 86.8258L250.447 88.4773L252.098 89.303L253.75 90.9545L254.576 92.6061L253.75 95.0833V97.5606L252.098 100.038L252.924 102.515L253.75 104.167L256.227 103.341L258.705 102.515L261.182 101.689H263.659L266.136 102.515L268.614 104.167V107.47V109.947L267.788 113.25L270.265 114.076L271.091 114.902L272.742 115.727V117.379L271.917 120.682V123.985L270.265 125.636L266.136 127.288L263.659 128.114L261.182 129.765L259.53 131.417L258.705 134.72L260.356 138.023L264.485 138.848L268.614 139.674H272.742L276.045 141.326L277.697 142.152L278.523 144.629V147.106V150.409L277.697 152.886L276.871 154.538L271.917 157.841L267.788 160.318L261.182 162.795L253.75 164.447H244.667H238.061L230.629 162.795L226.5 160.318L225.674 158.667L222.371 160.318L218.242 164.447L215.765 166.098H210.811L206.682 161.144L195.947 161.144H190.167L183.561 158.667L179.432 156.189L176.129 151.235L173.652 147.106L171.174 144.629H166.22L161.265 147.932L158.788 151.235V156.189V162.795V169.402V176.008L161.265 180.136L167.045 184.265L172.826 187.568L178.606 189.22L181.083 190.871V192.523L180.258 193.348H176.129L167.045 192.523L162.091 191.697L161.265 193.348L163.742 197.477L166.22 199.955L163.742 204.083C155.485 199.679 134.015 193.018 114.197 201.606L110.894 199.955L114.197 197.477L118.326 193.348L116.674 191.697L102.636 192.523L100.985 189.22L109.242 186.742C112.821 185.366 119.977 182.118 119.977 180.136L121.629 174.356V166.924V158.667V154.538L119.977 147.106L113.371 145.455L105.114 145.455L100.985 147.106L99.3333 149.583L100.985 154.538V158.667L99.3333 161.144H93.553L87.7727 160.318L84.4697 158.667L80.3409 160.318L76.2121 162.795L72.0833 166.098L66.303 166.924H61.3485L57.2197 164.447L53.9167 162.795H49.7879L46.4849 164.447L42.3561 166.098L38.2273 164.447L34.0985 162.795L32.447 158.667V154.538V152.886H27.4924L24.1894 156.189L21.7121 158.667H17.5833H9.32576H1.06819L0.242432 152.886L0.242432 148.758L1.89395 144.629L6.84849 139.674L11.803 135.545V133.068L8.50001 131.417L6.02273 128.939L8.50001 124.811L10.1515 122.333H13.4546L15.9318 123.159L19.2349 120.682L21.7121 118.205L24.1894 116.553L28.3182 117.379L29.9697 120.682L32.447 123.159L38.2273 116.553L40.7046 113.25L38.2273 109.947H34.0985L31.6212 101.689V91.7803L34.0985 85.1742L38.2273 76.9167L39.8788 71.9621L42.3561 65.356L44.8333 62.8788L48.9621 61.2273H53.9167L56.3939 62.053L58.0455 63.7045C58.8712 64.5303 58.8712 65.356 58.8712 65.356V66.1818L59.697 67.0076H61.3485ZM90.25 128.114H92.7273L95.2046 128.939L97.6818 129.765H100.985L102.636 128.939L105.114 127.288L106.765 124.811L109.242 123.159H113.371L116.674 124.811L118.326 126.462L121.629 128.114L123.28 129.765L124.932 131.417L124.106 132.242L123.28 133.068H121.629L118.326 132.242L116.674 131.417H113.371H110.894L107.591 133.068L105.114 134.72L102.636 136.371H99.3333L95.2046 135.545L91.0758 133.068L88.5985 131.417L87.7727 128.939L90.25 128.114ZM117.5 111.598L119.977 114.076L121.629 114.902L124.106 116.553L127.409 118.205L130.712 119.856L133.189 121.508L134.841 122.333H136.492L138.144 121.508V119.856L138.97 116.553L139.795 114.076L140.621 109.121V106.644L138.97 104.167L138.144 100.864L134.841 100.038L132.364 100.864L130.712 104.167L129.061 108.295L127.409 109.947L124.932 110.773L121.629 109.947L118.326 109.121L117.5 109.947V111.598ZM158.788 105.818L153.833 108.295L152.182 119.856L153.008 120.682L162.917 111.598L163.742 107.47V104.167V102.515L158.788 105.818ZM163.742 129.765L167.871 125.636L172 122.333L175.303 120.682L179.432 118.205H183.561L189.341 119.03L192.644 121.508V123.159L190.992 125.636L187.689 124.811H182.735H179.432L176.955 127.288L173.652 129.765L172 131.417L169.523 132.242L166.22 133.068L163.742 133.894L161.265 133.068L163.742 129.765Z" fill="url(#paint0_linear_8_35)"/>
<defs>
<linearGradient id="paint0_linear_8_35" x1="23.3636" y1="102.515" x2="267.788" y2="102.515" gradientUnits="userSpaceOnUse">
<stop stop-color="#C11505"/>
<stop offset="1" stop-color="#CD1B0A" stop-opacity="0.4"/>
</linearGradient>
</defs>
</svg>
