<svg width="26" height="34" viewBox="0 0 26 34" fill="none" xmlns="http://www.w3.org/2000/svg">
<path d="M5.23073 17.2562C5.23073 20.9046 2.28152 25.2685 0.529826 23.5168C-1.12168 21.8653 1.64685 20.2166 1.64685 16.5682C1.64685 12.9198 -1.13216 11.9561 0.529835 10.3046C2.19183 8.65313 5.23073 13.6078 5.23073 17.2562Z" fill="white"/>
<path d="M11.2647 16.5681C11.2647 21.7574 9.17727 27.3397 6.40123 25.9642C4.14671 24.8471 7.42715 21.7574 7.42715 16.5681C7.42715 11.3787 3.91552 8.37772 6.40124 7.17197C8.88695 5.96623 11.2647 11.3787 11.2647 16.5681Z" fill="white"/>
<path d="M17.8707 16.8823C17.8707 24.0337 14.7011 31.1927 12.0904 29.2971C9.97023 27.7576 14.0332 24.0337 14.0332 16.8823C14.0332 9.73078 9.75279 6.18604 12.0904 4.52438C14.428 2.86272 17.8707 9.73078 17.8707 16.8823Z" fill="white"/>
<path d="M25.3025 16.8358C25.3025 26.1604 20.5179 35.0718 17.8707 32.6001C15.7209 30.5929 21.465 26.1604 21.465 16.8358C21.465 7.51128 16.3262 3.38792 18.6965 1.22135C21.0668 -0.945222 25.3025 7.51129 25.3025 16.8358Z" fill="white"/>
</svg>
