<svg xmlns="http://www.w3.org/2000/svg" xmlns:xlink="http://www.w3.org/1999/xlink" preserveAspectRatio="xMidYMid meet" width="303" height="616" viewBox="0 0 303 616" style="width:100%;height:100%">

<defs>

<filter id="blurFilter" x="-20%" y="-20%" width="140%" height="140%">
    <feGaussianBlur in="SourceGraphic" stdDeviation="2.5" />
  </filter>

<animateTransform repeatCount="indefinite" dur="9.0423757s" begin="0s" xlink:href="#_R_G_L_1_G_L_1_G" fill="freeze" attributeName="transform" from="1.25 1.25" to="1.25 1.25" type="scale" additive="sum" keyTimes="0;0.501845;0.99631;1" values="1.25 1.25;0.875 1.25;1.25 1.25;1.25 1.25" keySplines="0.333 0 0.667 1;0.333 0 0.667 1;0 0 0 0" calcMode="spline"/>
<animateTransform repeatCount="indefinite" dur="9.0423757s" begin="0s" xlink:href="#_R_G_L_1_G_L_1_G" fill="freeze" attributeName="transform" from="0.25 243.75" to="0.25 243.75" type="translate" additive="sum" keyTimes="0;1" values="0.25 243.75;0.25 243.75" keySplines="0 0 1 1" calcMode="spline"/>
<animateTransform repeatCount="indefinite" dur="9.0423757s" begin="0s" xlink:href="#_R_G_L_1_G_L_0_G" fill="freeze" attributeName="transform" from="1.25 1.25" to="1.25 1.25" type="scale" additive="sum" keyTimes="0;0.501845;0.99631;1" values="1.25 1.25;0.875 1.25;1.25 1.25;1.25 1.25" keySplines="0.333 0 0.667 1;0.333 0 0.667 1;0 0 0 0" calcMode="spline"/>
<animateTransform repeatCount="indefinite" dur="9.0423757s" begin="0s" xlink:href="#_R_G_L_1_G_L_0_G" fill="freeze" attributeName="transform" from="0.25 243.75" to="0.25 243.75" type="translate" additive="sum" keyTimes="0;1" values="0.25 243.75;0.25 243.75" keySplines="0 0 1 1" calcMode="spline"/>
<animate repeatCount="indefinite" dur="9.0423757s" begin="0s" xlink:href="#_R_G_L_0_C_0_P_0" fill="freeze" attributeName="d" attributeType="XML" from="M607.5 271.5 C607.5,271.5 101.5,777.5 101.5,777.5 C101.5,777.5 99.5,798.5 99.5,798.5 C99.5,798.5 607.5,287 607.5,287 C607.5,287 607.5,271.5 607.5,271.5z " to="M212 -232 C212,-232 -294,274 -294,274 C-294,274 -296,295 -296,295 C-296,295 212,-216.5 212,-216.5 C212,-216.5 212,-232 212,-232z " keyTimes="0;0.1476015;1" values="M607.5 271.5 C607.5,271.5 101.5,777.5 101.5,777.5 C101.5,777.5 99.5,798.5 99.5,798.5 C99.5,798.5 607.5,287 607.5,287 C607.5,287 607.5,271.5 607.5,271.5z ;M212 -232 C212,-232 -294,274 -294,274 C-294,274 -296,295 -296,295 C-296,295 212,-216.5 212,-216.5 C212,-216.5 212,-232 212,-232z ;M212 -232 C212,-232 -294,274 -294,274 C-294,274 -296,295 -296,295 C-296,295 212,-216.5 212,-216.5 C212,-216.5 212,-232 212,-232z " keySplines="0.333 0 0.667 1;0 0 0 0" calcMode="spline"/><clipPath id="_R_G_L_0_C_0"><path id="_R_G_L_0_C_0_P_0" fill-rule="nonzero"/></clipPath>
<animate attributeType="XML" attributeName="opacity" dur="9s" from="0" to="1" xlink:href="#time_group"/>

</defs>

<g id="_R_G"><g id="_R_G_L_1_G"><g id="_R_G_L_1_G_L_5_G_N_1_T_0" transform=" translate(151.5, 308) translate(0, 0)"><g id="_R_G_L_1_G_L_5_G" transform=" translate(-0.5, -305.2) translate(-45.25, -3.05)"><path id="_R_G_L_1_G_L_5_G_D_0_P_0" fill="#e57e25" fill-opacity="1" fill-rule="nonzero" d=" M0.25 5.85 C0.25,5.85 90.25,5.85 90.25,5.85 C90.25,5.85 90.25,0.25 90.25,0.25 C90.25,0.25 0.25,0.25 0.25,0.25 C0.25,0.25 0.25,5.85 0.25,5.85z "/></g></g><g id="_R_G_L_1_G_L_4_G_N_1_T_0" transform=" translate(151.5, 308) translate(0, 0)"><g id="_R_G_L_1_G_L_4_G" transform=" translate(-0.5, 305.189) translate(-45.25, -3.05)"><path id="_R_G_L_1_G_L_4_G_D_0_P_0" fill="#e57e25" fill-opacity="1" fill-rule="nonzero" d=" M0.25 5.85 C0.25,5.85 90.25,5.85 90.25,5.85 C90.25,5.85 90.25,0.25 90.25,0.25 C90.25,0.25 0.25,0.25 0.25,0.25 C0.25,0.25 0.25,5.85 0.25,5.85z "/></g></g><g id="_R_G_L_1_G_L_3_G_N_1_T_0" transform=" translate(151.5, 308) translate(0, 0)"><g id="_R_G_L_1_G_L_3_G" transform=" translate(-97.624, -0.006) translate(-54.126, -308.243)"><path id="_R_G_L_1_G_L_3_G_D_0_P_0" fill="#e57e25" fill-opacity="1" fill-rule="nonzero" d=" M57.09 5.85 C57.09,5.85 108,5.85 108,5.85 C108,5.85 108,0.25 108,0.25 C108,0.25 54.36,0.25 54.36,0.25 C52.82,0.25 51.56,1.5 51.56,3.05 C51.56,29.8 29.8,51.56 3.05,51.56 C1.51,51.56 0.25,52.81 0.25,54.36 C0.25,54.36 0.25,97.25 0.25,97.25 C0.25,97.25 0.25,108 0.25,108 C0.25,108 0.25,508.48 0.25,508.48 C0.25,508.48 0.25,519.25 0.25,519.25 C0.25,519.25 0.25,562.13 0.25,562.13 C0.25,563.67 1.51,564.92 3.05,564.92 C29.8,564.92 51.56,586.68 51.56,613.44 C51.56,614.98 52.82,616.24 54.36,616.24 C54.36,616.24 108,616.24 108,616.24 C108,616.24 108,610.64 108,610.64 C108,610.64 57.09,610.64 57.09,610.64 C55.68,583.03 33.46,560.81 5.85,559.4 C5.85,559.4 5.85,519.25 5.85,519.25 C5.85,519.25 5.85,519.25 5.85,519.25 C5.85,519.25 5.85,97.25 5.85,97.25 C5.85,97.25 5.85,97.25 5.85,97.25 C5.85,97.25 5.85,57.09 5.85,57.09 C33.46,55.67 55.68,33.46 57.09,5.85z "/></g></g><g id="_R_G_L_1_G_L_2_G_N_1_T_0" transform=" translate(151.5, 308) translate(0, 0)"><g id="_R_G_L_1_G_L_2_G" transform=" translate(97.624, -0.007) translate(-54.126, -308.243)"><path id="_R_G_L_1_G_L_2_G_D_0_P_0" fill="#e57e25" fill-opacity="1" fill-rule="nonzero" d=" M108 108 C108,108 108,54.36 108,54.36 C108,52.82 106.75,51.56 105.2,51.56 C78.45,51.56 56.69,29.8 56.69,3.05 C56.69,1.51 55.44,0.25 53.89,0.25 C53.89,0.25 0.25,0.25 0.25,0.25 C0.25,0.25 0.25,5.85 0.25,5.85 C0.25,5.85 51.16,5.85 51.16,5.85 C52.58,33.46 74.79,55.68 102.41,57.09 C102.41,57.09 102.41,97.25 102.41,97.25 C102.41,97.25 102.4,97.25 102.4,97.25 C102.4,97.25 102.4,519.25 102.4,519.25 C102.4,519.25 102.41,519.25 102.41,519.25 C102.41,519.25 102.41,559.4 102.41,559.4 C74.79,560.81 52.58,583.02 51.16,610.64 C51.16,610.64 0.25,610.64 0.25,610.64 C0.25,610.64 0.25,616.24 0.25,616.24 C0.25,616.24 53.89,616.24 53.89,616.24 C55.44,616.24 56.69,614.98 56.69,613.44 C56.69,586.69 78.45,564.93 105.2,564.93 C106.75,564.93 108,563.67 108,562.13 C108,562.13 108,508.48 108,508.48 C108,508.48 108,508.48 108,508.48 C108,508.48 108,108 108,108 C108,108 108,108 108,108z "/></g></g><g id="_R_G_L_1_G_L_1_G_N_1_T_0" transform=" translate(151.5, 308) translate(0, 0)"><g id="_R_G_L_1_G_L_1_G" transform=" translate(-0.312, -305)"><path id="_R_G_L_1_G_L_1_G_D_0_P_0" fill="#ffffff" fill-opacity="1" fill-rule="nonzero" d=" M-38.87 -243.75 C-38.87,-243.75 38.38,-243.75 38.38,-243.75 "/><path id="_R_G_L_1_G_L_1_G_D_1_P_0" stroke="#ffffff" stroke-linecap="round" stroke-linejoin="round" fill="none" stroke-width="5" stroke-opacity="1" d=" M-38.87 -243.75 C-38.87,-243.75 38.38,-243.75 38.38,-243.75 "/></g></g><g id="_R_G_L_1_G_L_0_G_N_1_T_0" transform=" translate(151.5, 308) translate(0, 0)"><g id="_R_G_L_1_G_L_0_G" transform=" translate(-0.312, 305.156)"><path id="_R_G_L_1_G_L_0_G_D_0_P_0" fill="#ffffff" fill-opacity="1" fill-rule="nonzero" d=" M-38.87 -243.75 C-38.87,-243.75 38.38,-243.75 38.38,-243.75 "/><path id="_R_G_L_1_G_L_0_G_D_1_P_0" stroke="#ffffff" stroke-linecap="round" stroke-linejoin="round" fill="none" stroke-width="5" stroke-opacity="1" d=" M-38.87 -243.75 C-38.87,-243.75 38.38,-243.75 38.38,-243.75 "/></g></g></g>
<g id="_R_G_L_0_G" opacity="0.75" filter="url(#blurFilter)"><g clip-path="url(#_R_G_L_0_C_0)"><g id="_R_G_L_0_G_G_0_L_3_G" transform=" translate(151, 2.8) translate(-45.25, -3.05)"><path id="_R_G_L_0_G_G_0_L_3_G_D_0_P_0" fill="#ffffff" fill-opacity="1" fill-rule="nonzero" d=" M0.25 5.85 C0.25,5.85 90.25,5.85 90.25,5.85 C90.25,5.85 90.25,0.25 90.25,0.25 C90.25,0.25 0.25,0.25 0.25,0.25 C0.25,0.25 0.25,5.85 0.25,5.85z "/></g><g id="_R_G_L_0_G_G_0_L_2_G" transform=" translate(151, 613.189) translate(-45.25, -3.05)"><path id="_R_G_L_0_G_G_0_L_2_G_D_0_P_0" fill="#ffffff" fill-opacity="1" fill-rule="nonzero" d=" M0.25 5.85 C0.25,5.85 90.25,5.85 90.25,5.85 C90.25,5.85 90.25,0.25 90.25,0.25 C90.25,0.25 0.25,0.25 0.25,0.25 C0.25,0.25 0.25,5.85 0.25,5.85z "/></g><g id="_R_G_L_0_G_G_0_L_1_G" transform=" translate(53.876, 307.994) translate(-54.126, -308.243)"><path id="_R_G_L_0_G_G_0_L_1_G_D_0_P_0" fill="#ffffff" fill-opacity="1" fill-rule="nonzero" d=" M57.09 5.85 C57.09,5.85 108,5.85 108,5.85 C108,5.85 108,0.25 108,0.25 C108,0.25 54.36,0.25 54.36,0.25 C52.82,0.25 51.56,1.5 51.56,3.05 C51.56,29.8 29.8,51.56 3.05,51.56 C1.51,51.56 0.25,52.81 0.25,54.36 C0.25,54.36 0.25,97.25 0.25,97.25 C0.25,97.25 0.25,108 0.25,108 C0.25,108 0.25,508.48 0.25,508.48 C0.25,508.48 0.25,519.25 0.25,519.25 C0.25,519.25 0.25,562.13 0.25,562.13 C0.25,563.67 1.51,564.92 3.05,564.92 C29.8,564.92 51.56,586.68 51.56,613.44 C51.56,614.98 52.82,616.24 54.36,616.24 C54.36,616.24 108,616.24 108,616.24 C108,616.24 108,610.64 108,610.64 C108,610.64 57.09,610.64 57.09,610.64 C55.68,583.03 33.46,560.81 5.85,559.4 C5.85,559.4 5.85,519.25 5.85,519.25 C5.85,519.25 5.85,519.25 5.85,519.25 C5.85,519.25 5.85,97.25 5.85,97.25 C5.85,97.25 5.85,97.25 5.85,97.25 C5.85,97.25 5.85,57.09 5.85,57.09 C33.46,55.67 55.68,33.46 57.09,5.85z "/></g><g id="_R_G_L_0_G_G_0_L_0_G" transform=" translate(249.124, 307.993) translate(-54.126, -308.243)"><path id="_R_G_L_0_G_G_0_L_0_G_D_0_P_0" fill="#ffffff" fill-opacity="1" fill-rule="nonzero" d=" M108 108 C108,108 108,54.36 108,54.36 C108,52.82 106.75,51.56 105.2,51.56 C78.45,51.56 56.69,29.8 56.69,3.05 C56.69,1.51 55.44,0.25 53.89,0.25 C53.89,0.25 0.25,0.25 0.25,0.25 C0.25,0.25 0.25,5.85 0.25,5.85 C0.25,5.85 51.16,5.85 51.16,5.85 C52.58,33.46 74.79,55.68 102.41,57.09 C102.41,57.09 102.41,97.25 102.41,97.25 C102.41,97.25 102.4,97.25 102.4,97.25 C102.4,97.25 102.4,519.25 102.4,519.25 C102.4,519.25 102.41,519.25 102.41,519.25 C102.41,519.25 102.41,559.4 102.41,559.4 C74.79,560.81 52.58,583.02 51.16,610.64 C51.16,610.64 0.25,610.64 0.25,610.64 C0.25,610.64 0.25,616.24 0.25,616.24 C0.25,616.24 53.89,616.24 53.89,616.24 C55.44,616.24 56.69,614.98 56.69,613.44 C56.69,586.69 78.45,564.93 105.2,564.93 C106.75,564.93 108,563.67 108,562.13 C108,562.13 108,508.48 108,508.48 C108,508.48 108,508.48 108,508.48 C108,508.48 108,108 108,108 C108,108 108,108 108,108z "/></g></g></g></g><g id="time_group"/></svg>