<svg width="303" height="616" viewBox="0 0 303 616" fill="none" xmlns="http://www.w3.org/2000/svg">
<path d="M5.59751 107.752V56.8381C33.2119 55.4247 55.4247 33.2119 56.8381 5.5975H107.752V-1.52588e-05H54.1093C52.5653 -1.52588e-05 51.3105 1.25476 51.3105 2.79874C51.3105 29.5502 29.5502 51.3105 2.79876 51.3105C1.25478 51.3105 0 52.5653 0 54.1093V107.752H5.59751Z" fill="#E57E25"/>
<path d="M195.248 5.5975H246.162C247.575 33.2119 269.784 55.4247 297.403 56.8381V107.752H303V54.1093C303 52.5653 301.745 51.3105 300.201 51.3105C273.45 51.3105 251.69 29.5502 251.69 2.79874C251.69 1.25476 250.435 -1.52588e-05 248.891 -1.52588e-05H195.248V5.5975Z" fill="#E57E25"/>
<path d="M297.403 508.234V559.148C269.788 560.562 247.575 582.77 246.162 610.389H195.248V615.987H248.891C250.435 615.987 251.69 614.732 251.69 613.188C251.69 586.436 273.45 564.676 300.201 564.676C301.745 564.676 303 563.421 303 561.877V508.234H297.403Z" fill="#E57E25"/>
<path d="M107.752 610.389H56.8381C55.4247 582.775 33.2119 560.562 5.59751 559.148V508.234H0V561.877C0 563.421 1.25478 564.676 2.79876 564.676C29.5502 564.676 51.3105 586.436 51.3105 613.188C51.3105 614.732 52.5653 615.987 54.1093 615.987H107.752V610.389Z" fill="#E57E25"/>
<path d="M196 -1.52588e-05H106V5.60061H196V-1.52588e-05Z" fill="#E57E25"/>
<path d="M196 610.389H106V615.989H196V610.389Z" fill="#E57E25"/>
<path d="M5.60012 97H0V519H5.60012V97Z" fill="#E57E25"/>
<path d="M302.998 97H297.398V519H302.998V97Z" fill="#E57E25"/>
<path d="M193.332 -1.52588e-05H191V5.5975H193.332C194.876 5.5975 196.131 4.34272 196.131 2.79874C196.131 1.25476 194.876 -1.52588e-05 193.332 -1.52588e-05Z" fill="#F0F0F0"/>
<path d="M111.131 -1.52588e-05H108.799C107.255 -1.52588e-05 106 1.25476 106 2.79874C106 4.34272 107.255 5.5975 108.799 5.5975H111.131V-1.52588e-05Z" fill="#F0F0F0"/>
<path d="M191 -1.52588e-05H111V5.59998H191V-1.52588e-05Z" fill="#F0F0F0"/>
<path d="M193.332 610.393H191V615.99H193.332C194.876 615.99 196.131 614.735 196.131 613.191C196.131 611.647 194.876 610.393 193.332 610.393Z" fill="#F0F0F0"/>
<path d="M111.131 610.393H108.799C107.255 610.393 106 611.647 106 613.191C106 614.735 107.255 615.99 108.799 615.99H111.131V610.393Z" fill="#F0F0F0"/>
<path d="M191 610.393H111V615.99H191V610.393Z" fill="#F0F0F0"/>
</svg>
