<svg xmlns="http://www.w3.org/2000/svg" xmlns:xlink="http://www.w3.org/1999/xlink" preserveAspectRatio="xMidYMid meet" width="1920" height="1080" viewBox="0 0 1920 1080" style="width:100%;height:100%">

<style type="text/css">
  @import url('https://fonts.googleapis.com/css2?family=Montserrat:ital,wght@0,100..900;1,100..900');


	.common{font-family: "Montserrat", sans-serif; font-weight: 700; font-size:56px; fill:#F1F0F0;}
</style>

<defs>

<filter id="blurFilter" x="-20%" y="-20%" width="140%" height="140%">
    <feGaussianBlur in="SourceGraphic" stdDeviation="2.5" />
  </filter>

<animate repeatCount="indefinite" dur="9.6096096s" begin="0s" xlink:href="#_R_G_L_0_G_L_3_C_0_P_0" fill="freeze" attributeName="d" attributeType="XML" from="M2510 226 C2510,226 1252,1526 1252,1526 C1252,1526 1244,1614 1244,1614 C1244,1614 2578,232 2578,232 C2578,232 2510,226 2510,226z " to="M494 -430 C494,-430 -764,870 -764,870 C-764,870 -772,958 -772,958 C-772,958 562,-424 562,-424 C562,-424 494,-430 494,-430z " 
keyTimes="0;0.2;1" values="M2510 226 C2510,226 1252,1526 1252,1526 C1252,1526 1244,1614 1244,1614 C1244,1614 2578,232 2578,232 C2578,232 2510,226 2510,226z ;M494 -430 C494,-430 -764,870 -764,870 C-764,870 -772,958 -772,958 C-772,958 562,-424 562,-424 C562,-424 494,-430 494,-430z ;M494 -430 C494,-430 -764,870 -764,870 C-764,870 -772,958 -772,958 C-772,958 562,-424 562,-424 C562,-424 494,-430 494,-430z " 
keySplines="0.333 0 0.2 1;0 0 0 0" calcMode="spline"/><clipPath id="_R_G_L_0_G_L_3_C_0"><path id="_R_G_L_0_G_L_3_C_0_P_0" fill-rule="nonzero"/></clipPath>

<animate repeatCount="indefinite" dur="9.6096096s" begin="0s" xlink:href="#_R_G_L_0_G_L_3_G_M" fill="freeze" attributeName="opacity" from="1" to="0" keyTimes="0;0.1423611;0.1423611;1" values="1;1;0;0" keySplines="0 0 0 0;0 0 0 0;0 0 0 0" calcMode="spline"/>
<animateTransform repeatCount="indefinite" dur="9.6096096s" begin="0s" xlink:href="#_R_G_L_0_G_L_2_G" fill="freeze" attributeName="transform" from="1 1" to="1 1" type="scale" additive="sum" keyTimes="0;0.4982639;0.9965278;1" values="1 1;0.8200000000000001 1;1 1;1 1" keySplines="0.333 0 0.667 1;0.333 0 0.667 1;0 0 0 0" calcMode="spline"/>
<animateTransform repeatCount="indefinite" dur="9.6096096s" begin="0s" xlink:href="#_R_G_L_0_G_L_2_G" fill="freeze" attributeName="transform" from="0 434" to="0 434" type="translate" additive="sum" keyTimes="0;1" values="0 434;0 434" keySplines="0 0 1 1" calcMode="spline"/>
<animateTransform repeatCount="indefinite" dur="9.6096096s" begin="0s" xlink:href="#_R_G_L_0_G_L_1_G" fill="freeze" attributeName="transform" from="1 1" to="1 1" type="scale" additive="sum" keyTimes="0;0.4982639;0.9965278;1" values="1 1;0.84 1;1 1;1 1" keySplines="0.333 0 0.667 1;0.333 0 0.667 1;0 0 0 0" calcMode="spline"/>
<animateTransform repeatCount="indefinite" dur="9.6096096s" begin="0s" xlink:href="#_R_G_L_0_G_L_1_G" fill="freeze" attributeName="transform" from="-543 433" to="-543 433" type="translate" additive="sum" keyTimes="0;1" values="-543 433;-543 433" keySplines="0 0 1 1" calcMode="spline"/>
<animateTransform repeatCount="indefinite" dur="9.6096096s" begin="0s" xlink:href="#_R_G_L_0_G_L_0_G" fill="freeze" attributeName="transform" from="-1 1" to="-1 1" type="scale" additive="sum" keyTimes="0;0.4982639;0.9965278;1" values="-1 1;-0.84 1;-1 1;-1 1" keySplines="0.333 0 0.667 1;0.333 0 0.667 1;0 0 0 0" calcMode="spline"/>
<animateTransform repeatCount="indefinite" dur="9.6096096s" begin="0s" xlink:href="#_R_G_L_0_G_L_0_G" fill="freeze" attributeName="transform" from="-543 433" to="-543 433" type="translate" additive="sum" keyTimes="0;1" values="-543 433;-543 433" keySplines="0 0 1 1" calcMode="spline"/>
<animate attributeType="XML" attributeName="opacity" dur="10s" from="0" to="1" xlink:href="#time_group"/>

</defs>

<g id="_R_G"><g id="_R_G_L_0_G"><g id="_R_G_L_0_G_L_5_G" transform=" translate(956.662, 975.4) translate(-192.162, 19.6)"><text id="_R_G_L_0_G_L_5_G_X" class="common" text-anchor="start" letter-spacing="0"><tspan id="_R_G_L_0_G_L_5_G_X_A_0" x="0" dy="0">ANNIKIFORSI</tspan></text></g><g id="_R_G_L_0_G_L_4_G" transform=" translate(960, 540) translate(-860.25, -440.25)"><path id="_R_G_L_0_G_L_4_G_D_0_P_0" fill="#e57e26" fill-opacity="1" fill-rule="nonzero" d=" M1714.25 110.25 C1656.9,110.25 1610.25,63.6 1610.25,6.25 C1610.25,2.94 1607.56,0.25 1604.25,0.25 C1604.25,0.25 1489.25,0.25 1489.25,0.25 C1489.25,0.25 231.25,0.25 231.25,0.25 C231.25,0.25 116.25,0.25 116.25,0.25 C112.94,0.25 110.25,2.94 110.25,6.25 C110.25,63.6 63.6,110.25 6.25,110.25 C2.94,110.25 0.25,112.94 0.25,116.25 C0.25,116.25 0.25,231.25 0.25,231.25 C0.25,231.25 0.25,649.25 0.25,649.25 C0.25,649.25 0.25,764.25 0.25,764.25 C0.25,767.56 2.94,770.25 6.25,770.25 C63.6,770.25 110.25,816.9 110.25,874.25 C110.25,877.56 112.94,880.25 116.25,880.25 C116.25,880.25 231.25,880.25 231.25,880.25 C231.25,880.25 613.96,880.25 613.96,880.25 C613.96,880.25 613.96,868.25 613.96,868.25 C613.96,868.25 231.25,868.25 231.25,868.25 C231.25,868.25 122.1,868.25 122.1,868.25 C119.07,809.05 71.45,761.43 12.25,758.4 C12.25,758.4 12.25,649.25 12.25,649.25 C12.25,649.25 12.25,231.25 12.25,231.25 C12.25,231.25 12.25,122.1 12.25,122.1 C71.45,119.07 119.07,71.45 122.1,12.25 C122.1,12.25 231.25,12.25 231.25,12.25 C231.25,12.25 1489.25,12.25 1489.25,12.25 C1489.25,12.25 1598.4,12.25 1598.4,12.25 C1601.43,71.45 1649.04,119.07 1708.25,122.1 C1708.25,122.1 1708.25,231.25 1708.25,231.25 C1708.25,231.25 1708.25,649.25 1708.25,649.25 C1708.25,649.25 1708.25,758.4 1708.25,758.4 C1649.05,761.43 1601.43,809.04 1598.4,868.25 C1598.4,868.25 1489.25,868.25 1489.25,868.25 C1489.25,868.25 1112.04,868.25 1112.04,868.25 C1112.04,868.25 1112.04,880.25 1112.04,880.25 C1112.04,880.25 1489.25,880.25 1489.25,880.25 C1489.25,880.25 1604.25,880.25 1604.25,880.25 C1607.56,880.25 1610.25,877.56 1610.25,874.25 C1610.25,816.9 1656.9,770.25 1714.25,770.25 C1717.56,770.25 1720.25,767.56 1720.25,764.25 C1720.25,764.25 1720.25,649.25 1720.25,649.25 C1720.25,649.25 1720.25,231.25 1720.25,231.25 C1720.25,231.25 1720.25,116.25 1720.25,116.25 C1720.25,112.94 1717.56,110.25 1714.25,110.25z "/></g><g id="_R_G_L_0_G_L_3_G_M"><g id="_R_G_L_0_G_L_3_G" opacity="0.45" filter="url(#blurFilter)"><g clip-path="url(#_R_G_L_0_G_L_3_C_0)"><g id="_R_G_L_0_G_L_3_G_G_0_L_0_G" transform=" translate(960, 540) translate(-860.25, -440.25)"><path id="_R_G_L_0_G_L_3_G_G_0_L_0_G_D_0_P_0" fill="#ffffff" fill-opacity="1" fill-rule="nonzero" d=" M1714.25 110.25 C1656.9,110.25 1610.25,63.6 1610.25,6.25 C1610.25,2.94 1607.56,0.25 1604.25,0.25 C1604.25,0.25 1489.25,0.25 1489.25,0.25 C1489.25,0.25 231.25,0.25 231.25,0.25 C231.25,0.25 116.25,0.25 116.25,0.25 C112.94,0.25 110.25,2.94 110.25,6.25 C110.25,63.6 63.6,110.25 6.25,110.25 C2.94,110.25 0.25,112.94 0.25,116.25 C0.25,116.25 0.25,231.25 0.25,231.25 C0.25,231.25 0.25,649.25 0.25,649.25 C0.25,649.25 0.25,764.25 0.25,764.25 C0.25,767.56 2.94,770.25 6.25,770.25 C63.6,770.25 110.25,816.9 110.25,874.25 C110.25,877.56 112.94,880.25 116.25,880.25 C116.25,880.25 231.25,880.25 231.25,880.25 C231.25,880.25 613.96,880.25 613.96,880.25 C613.96,880.25 613.96,868.25 613.96,868.25 C613.96,868.25 231.25,868.25 231.25,868.25 C231.25,868.25 122.1,868.25 122.1,868.25 C119.07,809.05 71.45,761.43 12.25,758.4 C12.25,758.4 12.25,649.25 12.25,649.25 C12.25,649.25 12.25,231.25 12.25,231.25 C12.25,231.25 12.25,122.1 12.25,122.1 C71.45,119.07 119.07,71.45 122.1,12.25 C122.1,12.25 231.25,12.25 231.25,12.25 C231.25,12.25 1489.25,12.25 1489.25,12.25 C1489.25,12.25 1598.4,12.25 1598.4,12.25 C1601.43,71.45 1649.04,119.07 1708.25,122.1 C1708.25,122.1 1708.25,231.25 1708.25,231.25 C1708.25,231.25 1708.25,649.25 1708.25,649.25 C1708.25,649.25 1708.25,758.4 1708.25,758.4 C1649.05,761.43 1601.43,809.04 1598.4,868.25 C1598.4,868.25 1489.25,868.25 1489.25,868.25 C1489.25,868.25 1112.04,868.25 1112.04,868.25 C1112.04,868.25 1112.04,880.25 1112.04,880.25 C1112.04,880.25 1489.25,880.25 1489.25,880.25 C1489.25,880.25 1604.25,880.25 1604.25,880.25 C1607.56,880.25 1610.25,877.56 1610.25,874.25 C1610.25,816.9 1656.9,770.25 1714.25,770.25 C1717.56,770.25 1720.25,767.56 1720.25,764.25 C1720.25,764.25 1720.25,649.25 1720.25,649.25 C1720.25,649.25 1720.25,231.25 1720.25,231.25 C1720.25,231.25 1720.25,116.25 1720.25,116.25 C1720.25,112.94 1717.56,110.25 1714.25,110.25z "/></g></g></g></g><g id="_R_G_L_0_G_L_2_G" transform=" translate(960, 106)"><path id="_R_G_L_0_G_L_2_G_D_0_P_0" fill="#e52552" fill-opacity="1" fill-rule="nonzero" d=" M-543 -434 C-543,-434 -76,-434 -76,-434 C-76,-434 543,-434 543,-434 "/><path id="_R_G_L_0_G_L_2_G_D_1_P_0" stroke="#ffffff" stroke-linecap="round" stroke-linejoin="round" fill="none" stroke-width="13" stroke-opacity="1" d=" M-543 -434 C-543,-434 -76,-434 -76,-434 C-76,-434 543,-434 543,-434 "/></g><g id="_R_G_L_0_G_L_1_G" transform=" translate(716, 974)"><path id="_R_G_L_0_G_L_1_G_D_0_P_0" fill="#e52552" fill-opacity="1" fill-rule="nonzero" d=" M245 -433 C245,-433 543,-433 543,-433 "/><path id="_R_G_L_0_G_L_1_G_D_1_P_0" stroke="#ffffff" stroke-linecap="round" stroke-linejoin="round" fill="none" stroke-width="13" stroke-opacity="1" d=" M245 -433 C245,-433 543,-433 543,-433 "/></g><g id="_R_G_L_0_G_L_0_G" transform=" translate(1207, 974)"><path id="_R_G_L_0_G_L_0_G_D_0_P_0" fill="#e52552" fill-opacity="1" fill-rule="nonzero" d=" M245 -433 C245,-433 543,-433 543,-433 "/><path id="_R_G_L_0_G_L_0_G_D_1_P_0" stroke="#ffffff" stroke-linecap="round" stroke-linejoin="round" fill="none" stroke-width="13" stroke-opacity="1" d=" M245 -433 C245,-433 543,-433 543,-433 "/></g></g></g><g id="time_group"/></svg>