<?xml version="1.0" encoding="utf-8"?>
<!-- Generator: Adobe Illustrator 28.3.0, SVG Export Plug-In . SVG Version: 6.00 Build 0)  -->
<svg version="1.1" id="Main" xmlns="http://www.w3.org/2000/svg" xmlns:xlink="http://www.w3.org/1999/xlink" x="0px" y="0px"
	 viewBox="0 0 1920 1080" style="enable-background:new 0 0 1920 1080;" xml:space="preserve">
<style type="text/css">
 @font-face {
      font-family: 'Montserrat';
      font-style: normal;
      font-weight: 600;
      src: url('https://fonts.googleapis.com/css2?family=Montserrat:ital,wght@0,100..900;1,100..900') format('truetype');
    }
	.st0{fill:#E57E26;}
	.st1{fill:#F0F0F0;}
	.st2{fill:#F1F0F0;}
	.st3{fill:none;}
	.st4{font-family: "Montserrat", sans-serif; font-weight: 700;}
	.st5{font-size:56px;}
</style>
<g id="Frame">
	<g id="Corners_x5F_Orange">
		<path id="Corner_x5F_Up_x5F_Left" class="st0" d="M112,331V221.85c59.2-3.03,106.82-50.65,109.85-109.85H331v-12H216
			c-3.31,0-6,2.69-6,6c0,57.35-46.65,104-104,104c-3.31,0-6,2.69-6,6v115H112z"/>
		<path id="Corner_x5F_Up_x5F_Right" class="st0" d="M1589,112h109.15c3.03,59.2,50.64,106.82,109.85,109.85V331h12V216
			c0-3.31-2.69-6-6-6c-57.35,0-104-46.65-104-104c0-3.31-2.69-6-6-6h-115V112z"/>
		<path id="Corner_x5F_Down_x5F_Right" class="st0" d="M1808,749v109.15c-59.2,3.03-106.82,50.64-109.85,109.85H1589v12h115
			c3.31,0,6-2.69,6-6c0-57.35,46.65-104,104-104c3.31,0,6-2.69,6-6V749H1808z"/>
		<path id="Corner_x5F_Down_x5F_Left" class="st0" d="M331,968H221.85C218.82,908.8,171.2,861.18,112,858.15V749h-12v115
			c0,3.31,2.69,6,6,6c57.35,0,104,46.65,104,104c0,3.31,2.69,6,6,6h115V968z"/>
	</g>
	<g id="Lines_x5F_Orange">
		<rect id="Line_x5F_Up" x="331" y="100" class="st0" width="1258" height="12"/>
		<rect id="Line_x5F_Down_x5F_Left" x="331" y="968" class="st0" width="382.71" height="12"/>
		<rect id="Line_x5F_Down_x5F_Right" x="1211.79" y="968" class="st0" width="377.21" height="12"/>
		<rect id="Line_x5F_Left" x="100" y="331" class="st0" width="12" height="418"/>
		<rect id="Line_x5F_Right" x="1808" y="331" class="st0" width="12" height="418"/>
	</g>
	<g id="Lines_x5F_White">
		<path id="Edge_x5F_White_x5F_Up_x5F_Right" class="st1" d="M1503,100h-5v12h5c3.31,0,6-2.69,6-6S1506.31,100,1503,100z"/>
		<path id="Edge_x5F_White_x5F_Up_x5F_Left" class="st1" d="M422,100h-5c-3.31,0-6,2.69-6,6s2.69,6,6,6h5V100z"/>
		<rect id="Line_x5F_White_x5F_Up" x="422" y="100" class="st1" width="1076" height="12"/>
		<path id="Edge_x5F_White_x5F_Down_x5F_Right" class="st2" d="M1503,968h-5v12h5c3.31,0,6-2.69,6-6S1506.31,968,1503,968z"/>
		<path id="Edge_x5F_White_x5F_Down_x5F_Left" class="st2" d="M422,968h-5c-3.31,0-6,2.69-6,6s2.69,6,6,6h5V968z"/>
		<path id="Edge_x5F_In_x5F_White_x5F_Down_x5F_Right" class="st2" d="M713.21,968h-5v12h5c3.31,0,6-2.69,6-6S716.52,968,713.21,968
			z"/>
		<path id="Edge_x5F_In_x5F_White_x5F_Down_x5F_Left" class="st2" d="M1211.79,968h-5c-3.31,0-6,2.69-6,6s2.69,6,6,6h5V968z"/>
		<rect id="Line_x5F_White_x5F_Down_x5F_Left" x="422" y="968" class="st2" width="286.21" height="12"/>
		<rect id="Line_x5F_White_x5F_Down_x5F_Right" x="1211.79" y="968" class="st2" width="286.21" height="12"/>
	</g>
</g>
<g id="Name">
	<rect x="725.99" y="952.61" class="st3" width="468.01" height="42.77"/>
	<text transform="matrix(1 0 0 1 765.067 994.1665)" class="st2 st4 st5">ANNIKIFORSI</text>
</g>
</svg>
