<svg width="122" height="122" viewBox="0 0 122 122" fill="none" xmlns="http://www.w3.org/2000/svg">
<path d="M62 74.5C71.665 74.5 79.5 66.665 79.5 57C79.5 47.335 71.665 39.5 62 39.5C52.335 39.5 44.5 47.335 44.5 57C44.5 66.665 52.335 74.5 62 74.5Z" fill="#E57E25"/>
<path d="M45.1401 82.5197C45.4401 83.0597 46.1701 84.5597 45.9601 87.9197C45.7601 90.8797 44.9501 93.3697 43.3301 97.1197C41.5501 101.24 41.1001 101.53 39.4701 105.09C37.4501 109.51 35.7601 113.3 35.1201 118.34C34.9901 119.38 34.9201 120.4 34.9001 121.41H24.7601C11.4101 121.41 0.590088 110.59 0.590088 97.2397V53.7197C1.11009 53.8097 1.65009 53.8997 2.23009 53.9897C11.2701 55.3097 13.8401 53.4897 22.6801 54.9197C30.7501 56.2297 32.2801 58.3497 32.8301 59.5697C33.5901 61.2497 33.6301 63.7097 32.4801 65.6897C31.5101 67.3497 30.0101 68.1697 28.5001 68.9797C26.4801 70.0697 25.2501 70.2097 22.9401 70.8797C21.0301 71.4397 17.6401 72.4297 14.3401 74.4997C12.4201 75.6997 10.0401 77.2297 8.50009 80.1297C7.82009 81.3997 6.65009 83.5997 7.41009 85.9797C8.21009 88.4797 10.6201 89.4797 11.1201 89.6897C13.7701 90.7897 16.3501 89.9397 17.6501 89.4997C19.3401 88.9397 20.5001 88.1097 22.7401 86.4597C25.8101 84.2097 25.7901 83.6497 28.3701 81.8197C30.7701 80.1097 32.4201 78.9397 34.9001 78.4697C35.8001 78.2997 38.6601 77.7997 41.5501 79.2497C42.2701 79.6097 44.0401 80.5197 45.1401 82.5197Z" fill="#232531"/>
<path d="M121.41 45.6396V97.2396C121.41 110.59 110.59 121.41 97.2401 121.41H59.6602C59.6802 121.3 59.7102 121.19 59.7302 121.08C60.6102 116.1 60.2702 112.26 59.7202 106.52C59.5402 104.7 59.0301 99.8896 58.9201 93.7496C58.8901 92.2197 58.8802 90.3096 59.8302 88.0896C60.3802 86.7996 61.6301 83.8896 64.8101 82.5996C67.2701 81.6096 69.9201 81.9896 71.7801 83.0896C73.4901 84.0896 74.3702 85.5896 75.3302 87.8596C77.6902 93.4096 77.1902 95.6396 78.6502 100.27C79.6502 103.43 81.1902 108.29 85.6502 111.34C86.9902 112.25 90.9402 114.94 94.6202 113.3C98.3801 111.63 99.0901 106.66 99.1401 106.28C99.6101 102.59 97.7202 99.7896 95.2302 96.1996C91.8802 91.3796 89.9902 91.1696 86.8702 86.0996C83.6202 80.8196 84.2401 78.7197 84.4501 78.1396C85.3001 75.7296 87.9302 74.1197 90.1602 73.6197C92.3402 73.1197 94.9201 74.0796 99.9901 76.0296C104.23 77.6596 104.75 78.1697 106.76 78.2997C108.34 78.4097 111.94 78.6396 114.12 76.1296C115.44 74.6096 115.92 72.4396 115.45 70.6296C114.54 67.1196 110.26 66.0096 108.81 65.6296C105.55 64.7896 104.93 65.9596 100.96 65.5196C98.7301 65.2696 93.2402 64.6596 91.3002 60.7096C90.0102 58.0696 90.9601 55.2896 91.1101 54.8796C92.5102 50.9496 96.6901 49.2796 99.3901 48.1996C102.12 47.1096 104.27 46.8796 108.36 46.4796C114.29 45.8896 114.51 46.6097 118.44 46.0797C119.37 45.9597 120.37 45.8196 121.41 45.6396Z" fill="#232531"/>
<path d="M3.70009 31.0798C2.81009 30.9498 1.75009 30.7898 0.590088 30.6898V24.7598C0.590088 11.4098 11.4101 0.589844 24.7601 0.589844H26.2101C26.1801 1.11984 26.1801 1.52984 26.1901 1.75984C26.2401 4.37984 27.2901 6.64984 29.3901 11.0998C32.2901 17.2498 33.4601 18.0798 36.3401 23.9398C40.6601 32.7298 40.4101 35.6998 39.7001 37.7298C39.4501 38.4498 38.6401 40.6798 36.4701 42.0998C35.6901 42.6198 33.5601 43.7898 29.1501 43.0098C24.3601 42.1698 22.6201 40.0398 17.2301 36.8098C12.7901 34.1598 8.99009 31.8898 3.70009 31.0798Z" fill="#232531"/>
<path d="M62.9001 28.8498C62.3501 29.3098 60.0801 31.2198 57.3601 30.9798C53.9301 30.6598 52.0201 27.1098 50.6801 24.5998C48.7901 21.0798 48.0401 17.5598 47.6901 13.7198C47.0901 7.08984 48.0801 3.64984 48.3501 0.589844H72.8001C72.2801 1.43984 71.8401 2.27984 71.4701 3.01984C69.8501 6.21984 69.9901 7.41984 67.1401 19.5598C66.0801 24.0598 65.3901 26.7498 62.9001 28.8498Z" fill="#232531"/>
<path d="M80.5301 33.6898C78.3201 30.0598 79.1601 26.1298 79.4801 24.7798C80.2501 21.4398 81.7201 20.6198 84.7901 15.9698C88.4801 10.3798 91.7001 5.47984 90.7601 0.589844H97.2401C110.02 0.589844 120.47 10.4998 121.34 23.0498C118.91 23.4198 116.85 24.1898 115.8 24.5898C111.03 26.3998 111.18 28.0498 104.42 32.3898C98.3501 36.2898 92.8201 39.8298 87.2201 38.4798C86.6601 38.3498 82.7701 37.3398 80.5301 33.6898Z" fill="#232531"/>
</svg>
