<?xml version="1.0" encoding="utf-8"?>
<!-- Generator: Adobe Illustrator 28.3.0, SVG Export Plug-In . SVG Version: 6.00 Build 0)  -->
<svg version="1.1" id="Main" xmlns="http://www.w3.org/2000/svg" xmlns:xlink="http://www.w3.org/1999/xlink" x="0px" y="0px"
	 viewBox="0 0 100 100" style="enable-background:new 0 0 100 100;" xml:space="preserve">
<style type="text/css">
	.st0{fill:#E57E25;}
	.st1{fill:#F0F0F0;}
</style>
<g id="Language_x5F_OrangeRound">
	<circle class="st0" cx="50" cy="50" r="25"/>
</g>
<path id="Language_x5F_Main" class="st1" d="M52.34,5.06C25.64,3.71,3.71,25.64,5.06,52.34c1.16,22.86,19.74,41.44,42.6,42.6
	c26.7,1.35,48.64-20.58,47.28-47.28C93.78,24.8,75.2,6.22,52.34,5.06z M77.98,31c-5.22,0-14.64,0-19.98,0C55.78,31,54,29.21,54,27
	v-9.01c0-2.61,2.45-4.52,4.98-3.89c8.35,2.09,15.58,7.02,20.6,13.7C80.57,29.12,79.62,31,77.98,31z M87,50
	c0,3.3-0.44,6.51-1.25,9.56C85.52,60.42,84.72,61,83.83,61H58c-2.21,0-4-1.79-4-4V43c0-2.21,1.79-4,4-4h25.83
	c0.89,0,1.69,0.58,1.92,1.44C86.56,43.49,87,46.7,87,50z M13,50c0-3.3,0.44-6.51,1.25-9.56c0.23-0.86,1.03-1.44,1.92-1.44H42
	c2.21,0,4,1.79,4,4v14c0,2.21-1.79,4-4,4H16.17c-0.89,0-1.69-0.58-1.92-1.44C13.44,56.51,13,53.3,13,50z M46,17.99V27
	c0,2.21-1.79,4-4,4l-19.97,0c-1.64,0-2.6-1.88-1.61-3.19c5.02-6.68,12.26-11.61,20.6-13.7C43.55,13.47,46,15.39,46,17.99z M22.03,69
	H42c2.21,0,4,1.79,4,4v9.01c0,2.61-2.45,4.52-4.98,3.89c-8.35-2.09-15.58-7.02-20.6-13.7C19.43,70.88,20.39,69,22.03,69z M54,82.01
	V73c0-2.21,1.79-4,4-4h19.97c1.64,0,2.6,1.88,1.61,3.19c-5.02,6.68-12.26,11.61-20.6,13.7C56.45,86.53,54,84.61,54,82.01z"/>
</svg>
