<?xml version="1.0" encoding="UTF-8"?><svg id="Main" xmlns="http://www.w3.org/2000/svg" viewBox="0 0 580 563.19"><defs><style>.cls-1{fill:#f1f0ef;}.cls-1,.cls-2{stroke-width:0px;}.cls-2{fill:#e57e25;}</style></defs><g id="Logo"><g id="OrangeLine"><path id="Line" class="cls-2" d="M233.39,183.49l-39.23,23.34v.51l-13.37,7.96v-16.1l3.41-2.09,37.26-22.16c3.78,3.11,7.76,5.96,11.94,8.54Z"/><path id="Line-2" class="cls-2" d="M399.14,203.05v12.24l-13.37-7.96v-.52l-39.32-23.27c4.18-2.58,8.19-5.44,11.97-8.54l40.64,24.04.08,4.01Z"/><path id="Line-3" class="cls-2" d="M204.83,158.03l-47.69,28.37v42.97l-13.37,7.96v-58.49l3.33-2.1,50.05-29.78c2.34,3.86,4.91,7.56,7.69,11.08Z"/><path id="Line-4" class="cls-2" d="M436.15,182.61v54.72l-13.37-7.96v-42.98l-47.76-28.29c2.79-3.52,5.37-7.22,7.71-11.08l53.36,31.6.07,3.99Z"/><path id="Line-5" class="cls-2" d="M187.13,125.47l-68.06,40.49-.05,86.1-13.37,7.96.07-101.66,3.36-2.09,74.41-44.28c.94,4.61,2.16,9.11,3.64,13.47Z"/><path id="Line-6" class="cls-2" d="M474.28,162.17v97.85l-13.37-7.96v-86.14l-68.16-40.37c1.5-4.36,2.72-8.86,3.66-13.45l77.78,46.08.08,3.99Z"/></g><g id="WhiteLine"><path id="Line-7" class="cls-1" d="M289.96,563.19c-1.06,0-2.13-.28-3.07-.85l-217.23-129.62c-2.78-1.66-3.7-5.27-2.05-8.07s5.23-3.73,8.02-2.07l214.34,127.89,214.34-127.89c2.78-1.66,6.37-.74,8.02,2.07,1.65,2.8.73,6.42-2.05,8.07l-217.24,129.62c-.95.56-2,.85-3.07.85Z"/><path id="Line-8" class="cls-1" d="M69.76,135.86l-2.98,1.87v145.44l11.7-6.97v-131.83l103.03-61.27c.32-5.05.99-10.02,1.96-14.85l-113.71,67.62ZM513.05,137.57l-116.6-69.33c.97,4.83,1.64,9.8,1.96,14.85l103.03,61.27v131.83l11.7,6.97v-142.07l-.08-3.52Z"/><path id="Line-9" class="cls-1" d="M577.02,342.46l-251.53-148.97c-.15.05-.28.1-.43.15v13.25l237.7,140.79-272.77,161.56L17.24,347.68l237.62-140.75v-13.28c-.13-.05-.25-.08-.38-.13L3.01,342.42c-1.86,1.08-3.01,3.1-3.01,5.25s1.19,4.16,2.96,5.22l283.97,168.2c.94.56,2.01.84,3.08.84s2.11-.29,3.04-.84l283.92-168.16c1.87-1.08,3.03-3.08,3.03-5.25s-1.19-4.16-2.98-5.22Z"/><polygon id="Line-10" class="cls-1" points="513.13 318.28 513.13 377.07 501.43 384.01 501.43 311.34 513.13 318.28"/><polygon id="Line-11" class="cls-1" points="78.49 311.39 78.49 383.96 66.78 377.02 66.78 318.33 78.49 311.39"/></g><g id="Stick"><g id="StickDown"><path id="Line-12" class="cls-1" d="M331.75,362.83c0,9.29-18.71,16.84-41.79,16.84s-41.79-7.54-41.79-16.84c0-7.07,10.85-13.13,26.23-15.62,4.78,2.1,10.35,3.15,15.88,3.15s10.95-1.03,15.51-3.1c15.23,2.51,25.96,8.54,25.96,15.57Z"/><path id="Line-13" class="cls-1" d="M329.91,346.75s-.03-.02-.05-.03c-4.15-2.63-9.31-4.68-15.03-6.16l-.65.64-1.72,1.67c-1.84,1.78-4.11,3.25-6.67,4.39-4.56,2.07-10.01,3.1-15.51,3.1s-11.1-1.04-15.88-3.15c-2.41-1.04-4.61-2.37-6.5-3.97l-2.37-1.99-.64-.54v-.1c-5.63,1.48-10.73,3.52-14.83,6.11-.02.02-.03.03-.05.03-6.25,3.99-10.2,9.31-10.2,16.08,0,17.36,26,25.26,50.15,25.26s50.15-7.9,50.15-25.26c0-6.77-3.95-12.09-10.2-16.08ZM289.96,354.41c19.63,0,31.08,5.66,33.23,8.42-2.16,2.76-13.61,8.42-33.23,8.42s-31.08-5.66-33.23-8.42c2.16-2.76,13.61-8.42,33.23-8.42Z"/><path id="Line-14" class="cls-1" d="M325.06,316.9c-3.23-.93-6.59-1.73-10.03-2.41v9.63c29.52,6.21,50.2,23.23,50.2,43.76,0,25.96-33.07,46.3-75.28,46.3s-75.28-20.34-75.28-46.3c0-20.52,20.68-37.55,50.2-43.76v-9.63c-3.44.67-6.8,1.48-10.03,2.41-29.82,8.6-50.15,27.95-50.15,50.98,0,31.27,37.45,55.75,85.26,55.75s85.26-24.48,85.26-55.75c0-23.03-20.33-42.38-50.15-50.98Z"/></g><g id="StickMiddle"><path id="Line-15" class="cls-1" d="M281.6,332.02v-135.87c2.79-2.05,6.02-3.13,9.28-3.03,2.06.07,4.83.64,7.44,2.73v136.43c-4.46,1.77-11.87,1.65-16.72-.25Z"/><rect id="Line-16" class="cls-1" x="315.03" y="172.58" width="10.03" height="151.53"/><rect id="Line-17" class="cls-1" x="254.85" y="172.58" width="10.03" height="151.53"/></g><g id="StickUp"><path id="Line-18" class="cls-1" d="M377.27,70.53c-1.3-5.91-3.19-11.6-5.58-17.02C357.75,22.01,326.35,0,289.96,0s-67.79,22.02-81.73,53.52c-2.41,5.4-4.28,11.1-5.58,17.01-1.39,6.3-2.12,12.83-2.12,19.55,0,3.84.23,7.64.7,11.35.6,4.78,1.57,9.43,2.89,13.94,2.24,7.73,5.48,15.02,9.6,21.74,2.34,3.86,4.98,7.53,7.86,10.96,5.18,6.18,11.17,11.65,17.79,16.25,4.21,2.93,8.69,5.49,13.39,7.68.7.32,1.39.62,2.11.93,3.24,1.41,6.59,2.63,10.03,3.64,1.29.37,2.57.72,3.88,1.04,2.81.69,5.65,1.25,8.56,1.65,3.66.54,7.41.84,11.2.89.48.02.95.02,1.44.02s.95,0,1.44-.02c4-.05,7.92-.39,11.77-.98,2.71-.39,5.37-.93,7.99-1.57,1.3-.32,2.59-.67,3.88-1.04,3.44-1.01,6.79-2.22,10.03-3.64.67-.29,1.32-.57,1.97-.88,4.71-2.17,9.21-4.75,13.44-7.68,6.62-4.58,12.6-10.03,17.77-16.2,2.89-3.43,5.53-7.11,7.89-10.96,4.11-6.72,7.37-14.01,9.63-21.72,1.32-4.5,2.29-9.14,2.91-13.91.47-3.75.72-7.59.72-11.5,0-6.72-.74-13.25-2.12-19.55ZM295.34,168.16c-1.77.13-3.58.2-5.38.2s-3.61-.07-5.38-.2c-40.37-2.78-72.35-36.74-72.35-78.09,0-10.02,1.87-19.6,5.3-28.4,2.96-7.61,7.05-14.63,12.1-20.88,11.52-14.33,27.98-24.46,46.76-27.81,4.41-.79,8.94-1.2,13.57-1.2s9.18.4,13.59,1.21c18.76,3.33,35.21,13.47,46.74,27.78,5.05,6.25,9.14,13.28,12.1,20.89,3.43,8.81,5.3,18.39,5.3,28.4,0,41.35-31.98,75.31-72.35,78.09Z"/><ellipse id="Line-19" class="cls-1" cx="276.58" cy="71.56" rx="27.58" ry="27.78"/><path id="Line-20" class="cls-1" d="M289.96,148.16c-31.8,0-57.67-26.06-57.67-58.09s25.87-58.09,57.67-58.09,57.67,26.06,57.67,58.09-25.87,58.09-57.67,58.09ZM289.96,38.72c-28.11,0-50.99,23.04-50.99,51.35s22.87,51.35,50.99,51.35,50.99-23.04,50.99-51.35-22.87-51.35-50.99-51.35Z"/><path id="Line-21" class="cls-1" d="M276.58,105.23c-18.44,0-33.43-15.11-33.43-33.67s15-33.67,33.43-33.67,33.43,15.11,33.43,33.67-15,33.67-33.43,33.67ZM276.58,49.67c-11.98,0-21.73,9.82-21.73,21.89s9.75,21.89,21.73,21.89,21.73-9.82,21.73-21.89-9.75-21.89-21.73-21.89Z"/><path id="Line-22" class="cls-1" d="M377.27,70.53c-1.3-5.91-3.19-11.6-5.58-17.02C357.75,22.01,326.35,0,289.96,0s-67.79,22.02-81.73,53.52c-2.41,5.4-4.28,11.1-5.58,17.01-1.39,6.3-2.12,12.83-2.12,19.55,0,3.84.23,7.64.7,11.35.6,4.78,1.57,9.43,2.89,13.94,2.24,7.73,5.48,15.02,9.6,21.74,2.34,3.86,4.98,7.53,7.86,10.96,5.18,6.18,11.17,11.65,17.79,16.25,4.21,2.93,8.69,5.49,13.39,7.68.7.32,1.39.62,2.11.93,3.24,1.41,6.59,2.63,10.03,3.64,1.29.37,2.57.72,3.88,1.04,2.81.69,5.65,1.25,8.56,1.65,3.66.54,7.41.84,11.2.89.48.02.95.02,1.44.02s.95,0,1.44-.02c4-.05,7.92-.39,11.77-.98,2.71-.39,5.37-.93,7.99-1.57,1.3-.32,2.59-.67,3.88-1.04,3.44-1.01,6.79-2.22,10.03-3.64.67-.29,1.32-.57,1.97-.88,4.71-2.17,9.21-4.75,13.44-7.68,6.62-4.58,12.6-10.03,17.77-16.2,2.89-3.43,5.53-7.11,7.89-10.96,4.11-6.72,7.37-14.01,9.63-21.72,1.32-4.5,2.29-9.14,2.91-13.91.47-3.75.72-7.59.72-11.5,0-6.72-.74-13.25-2.12-19.55ZM295.34,168.16c-1.77.13-3.58.2-5.38.2s-3.61-.07-5.38-.2c-40.37-2.78-72.35-36.74-72.35-78.09,0-10.02,1.87-19.6,5.3-28.4,2.96-7.61,7.05-14.63,12.1-20.88,11.52-14.33,27.98-24.46,46.76-27.81,4.41-.79,8.94-1.2,13.57-1.2s9.18.4,13.59,1.21c18.76,3.33,35.21,13.47,46.74,27.78,5.05,6.25,9.14,13.28,12.1,20.89,3.43,8.81,5.3,18.39,5.3,28.4,0,41.35-31.98,75.31-72.35,78.09Z"/><ellipse id="Line-23" class="cls-1" cx="276.58" cy="71.56" rx="27.58" ry="27.78"/><path id="Line-24" class="cls-1" d="M289.96,148.16c-31.8,0-57.67-26.06-57.67-58.09s25.87-58.09,57.67-58.09,57.67,26.06,57.67,58.09-25.87,58.09-57.67,58.09ZM289.96,38.72c-28.11,0-50.99,23.04-50.99,51.35s22.87,51.35,50.99,51.35,50.99-23.04,50.99-51.35-22.87-51.35-50.99-51.35Z"/><path id="Line-25" class="cls-1" d="M276.58,105.23c-18.44,0-33.43-15.11-33.43-33.67s15-33.67,33.43-33.67,33.43,15.11,33.43,33.67-15,33.67-33.43,33.67ZM276.58,49.67c-11.98,0-21.73,9.82-21.73,21.89s9.75,21.89,21.73,21.89,21.73-9.82,21.73-21.89-9.75-21.89-21.73-21.89Z"/></g></g></g></svg>