<svg width="122" height="122" viewBox="0 0 122 122" fill="none" xmlns="http://www.w3.org/2000/svg">
<path d="M0.590088 51.1401V97.4101C0.590088 110.66 11.3401 121.41 24.5901 121.41H33.1001L32.4401 119.98L0.590088 51.1401Z" fill="#232531"/>
<path d="M116.11 73.8802C115.13 71.7702 112.86 70.7402 111.03 71.5902L106.41 73.7302C104.58 74.5802 103.89 76.9702 104.87 79.0902L110.01 90.2002L110.9 92.1202C111.39 93.1802 111.04 94.3702 110.13 94.8002L106.69 96.3902C105.78 96.8102 104.64 96.3002 104.15 95.2402L103.64 94.1402L101.84 90.2502C98.8101 83.7002 91.7601 80.5102 86.0901 83.1402L61.6301 94.4502C55.9601 97.0702 53.8201 104.51 56.8501 111.06L58.0001 113.54L59.1601 116.05C59.6501 117.11 59.3001 118.3 58.3901 118.73L54.9501 120.32C54.0401 120.74 52.9001 120.23 52.4101 119.17L51.5201 117.26L46.3801 106.15C45.4001 104.04 43.1301 103.01 41.3001 103.86L36.6801 106C34.8501 106.85 34.1601 109.24 35.1401 111.36L39.8001 121.43H97.4201C110.67 121.43 121.42 110.68 121.42 97.4302V85.3302L121.26 84.9902L116.11 73.8802Z" fill="#232531"/>
<path d="M121.41 70.8598V24.5898C121.41 11.3398 110.66 0.589844 97.4101 0.589844H88.9001L89.5601 2.01984L121.41 70.8598Z" fill="#232531"/>
<path d="M34.81 81.12C33.83 79.01 31.56 77.98 29.73 78.83L25.11 80.97C23.28 81.82 22.59 84.21 23.57 86.33L28.71 97.44C29.69 99.55 31.96 100.58 33.79 99.73L38.41 97.5899C40.24 96.7399 40.93 94.35 39.95 92.23L34.81 81.12Z" fill="#232531"/>
<path d="M10.6301 49.6901L15.2501 47.5501C17.0801 46.7001 17.7701 44.3101 16.7901 42.1901L11.6501 31.0801L11.1001 29.8901C10.6101 28.8301 10.9601 27.6401 11.8701 27.2101L15.3101 25.6201C16.2201 25.2001 17.3601 25.7101 17.8501 26.7701L18.8301 28.8801L20.1201 31.6801C22.9901 37.8801 29.6601 40.8901 35.0201 38.4101L60.6001 26.5801C65.9601 24.1001 67.9901 17.0701 65.1201 10.8701L63.8301 8.07008L62.8501 5.96008C62.3601 4.90008 62.7101 3.71008 63.6201 3.28008L67.0601 1.69008C67.9701 1.27008 69.1101 1.78008 69.6001 2.84008L70.1501 4.03008L75.2901 15.1401C76.2701 17.2501 78.5401 18.2801 80.3701 17.4301L84.9901 15.2901C86.8201 14.4401 87.5101 12.0501 86.5301 9.93008L82.2101 0.580078H24.5901C11.3401 0.580078 0.590088 11.3301 0.590088 24.5801V36.6601L5.55009 47.3901C6.53009 49.5101 8.81009 50.5401 10.6301 49.6901Z" fill="#232531"/>
<path d="M28.3702 67.2099L23.2302 56.0999C22.2502 53.9899 19.9802 52.9599 18.1502 53.8099L13.5302 55.9499C11.7002 56.7999 11.0102 59.1899 11.9902 61.3099L17.1302 72.4199C18.1102 74.5299 20.3802 75.5599 22.2102 74.7099L26.8302 72.5699C28.6602 71.7199 29.3502 69.3299 28.3702 67.2099Z" fill="#232531"/>
<path d="M104.54 48.8602C103.56 46.7502 101.29 45.7202 99.46 46.5702L94.84 48.7102C93.01 49.5602 92.32 51.9502 93.3 54.0702L98.44 65.1802C99.42 67.2902 101.69 68.3202 103.52 67.4702L108.14 65.3302C109.97 64.4802 110.66 62.0902 109.68 59.9702L104.54 48.8602Z" fill="#232531"/>
<path d="M77.5401 37.7301C75.1401 32.5401 69.5601 30.0201 65.0701 32.1001L36.3401 45.3901C31.8501 47.4701 30.1601 53.3501 32.5601 58.5401L44.1301 83.5401C46.5301 88.7301 52.1101 91.2501 56.6001 89.1701L85.3301 75.8801C89.8201 73.8001 91.5101 67.9201 89.1101 62.7301L77.5401 37.7301Z" fill="#232531"/>
<path d="M98.1001 34.9502L92.9601 23.8402C91.9802 21.7302 89.7101 20.7002 87.8801 21.5502L83.2602 23.6902C81.4302 24.5402 80.7402 26.9302 81.7202 29.0502L86.8602 40.1602C87.8402 42.2702 90.1102 43.3002 91.9402 42.4502L96.5601 40.3102C98.3901 39.4602 99.0801 37.0702 98.1001 34.9502Z" fill="#232531"/>
<path d="M89.1101 62.7301L77.5401 37.7301C75.1401 32.5401 69.5601 30.0201 65.0701 32.1001L36.3401 45.3901C31.8501 47.4701 30.1601 53.3501 32.5601 58.5401L44.1301 83.5401C46.5301 88.7301 52.1101 91.2501 56.6001 89.1701L85.3301 75.8801C89.8101 73.8001 91.5101 67.9201 89.1101 62.7301Z" fill="#E57E25"/>
</svg>
