<svg width="214" height="221" viewBox="0 0 214 221" fill="none" xmlns="http://www.w3.org/2000/svg">
<path d="M200.49 40.3501V118.14C198.53 117.49 196.19 117.22 193.29 117.08C188.93 116.87 185.23 117.44 176.8 119.79C174.45 120.45 169.73 121.69 167.72 120.39C165.71 119.1 166.44 117.81 166.38 112.82C166.33 109.17 165.75 108.5 165.32 106.16C164.77 103.15 165.75 103.19 169.94 95.8901C173.42 89.8301 175.33 86.4001 175.96 75.3901C176.34 68.5701 175.02 56.1801 166.71 43.2001C158.45 30.3001 151.68 23.5301 139.73 16.1101C132.53 11.6201 120.08 7.3801 106.47 7.8501C94.47 8.2601 83.54 11.4701 58.35 26.5601C35.54 40.2201 28.35 49.6701 27.81 56.8601C27.17 65.4901 30.49 67.9901 31.68 69.4501C34.94 73.4801 30.49 70.8601 27.28 81.0101C25.26 87.3901 26.33 93.6501 29.95 98.4701C33.82 103.61 39.66 102.59 41.06 104.32C42.01 105.5 38.68 112.89 42.78 120.84C46.65 128.32 53.95 129.66 55.85 129.51C57.89 129.35 54.65 135 51.13 140.21C45.86 148.02 43.64 151.27 39.56 157.8C39.53 157.85 39.49 157.91 39.45 157.97C38.61 159.33 37.68 160.83 36.63 162.54C34.65 165.76 32.94 168.53 31.51 170.9C31.48 170.96 31.45 171.01 31.42 171.06C30.01 173.52 28.66 175.98 27.43 178.35C27.26 178.67 27.1 178.99 26.94 179.32C24.09 184.99 22.25 190.66 21.95 195.8C9.19 189.12 0.489998 175.75 0.489998 160.35V40.3501C0.489998 18.2601 18.4 0.350098 40.49 0.350098H160.49C182.58 0.350098 200.49 18.2601 200.49 40.3501Z" fill="#232531"/>
<path d="M192.56 148.69C188.41 151.41 188.78 153.09 187.57 160.72C186.26 168.95 184.68 173.91 182.19 180.18C179.74 186.36 177.94 189.67 174.68 194.35C173.31 196.31 171.81 197.92 171.14 198.91C188.06 194.25 200.49 178.75 200.49 160.35V149.74C198.34 148.4 195.35 146.85 192.56 148.69Z" fill="#232531"/>
<path d="M38.34 174.59C43.8 165.93 46.59 161.64 47.13 160.84C56.74 146.57 58.14 144.38 66.55 132.16C70.47 126.46 72.17 124.61 73.8 121.76C74.51 120.51 74.39 116.83 74.39 116.83C74.58 114.12 74.05 113.37 74.51 111.84C74.58 111.6 75.55 108.48 77.84 107.68C80.59 106.72 83.51 109.03 88.65 111.24C90.07 111.85 92.1 112.9 99.7 113.97C108.13 115.16 113.03 115.76 122.87 115.28C133.64 114.75 138.48 113.27 142.47 111.48C149.36 108.39 151.88 104.4 154.83 105.78C156.06 106.35 156.66 107.79 157.21 109.11C158.16 111.4 157.78 112.79 157.92 116.48C158.08 120.5 158.16 122.51 159.23 124.32C159.34 124.5 161.37 126.55 165.05 127.29C167.61 127.81 168.69 127.84 174.67 127.65C175.71 127.62 177.06 127.6 178.12 128.48C179.21 129.38 179.43 128.08 180.42 133.11C181.78 140 180.73 145.18 180.42 147.96C179.07 160.2 175.86 173.39 175.86 173.39C171.66 185.19 168.64 192.32 158.16 202.26C153.73 206.46 143.99 215.81 128.93 217.82C117.22 219.38 108.33 216.96 97.05 212.59C88.75 209.37 85.21 208.91 79.03 204.87C71.03 199.64 71.55 198.53 63.82 186.45C61.92 183.48 59.01 180.99 52.99 179.16C48.17 177.69 46.24 177.67 41.49 178.49C38.69 178.97 36.79 180.73 36.14 180.03C35.42 179.27 37.01 176.7 38.34 174.59Z" fill="#E57E25"/>
<path d="M210.25 130.29C208.87 128.33 207.26 126.7 205.46 125.42C203.94 124.33 202.29 123.48 200.49 122.87C199.95 122.69 199.4 122.54 198.83 122.4C194.96 121.46 191.61 121.04 186.87 121.82C186.79 121.83 180.43 122.96 176.95 124.7C176.58 124.8 176.24 124.94 175.92 125.06C175.1 125.37 174.08 125.77 172.37 126.06C171.55 126.19 166.55 126.41 164.02 124.16C161.67 122.07 161.2 120.54 161.2 120.25C161.21 119.98 161.24 119.65 161.27 119.26C161.47 116.56 161.85 111.53 160.23 107.3C159.91 106.44 159.17 104.99 158.11 103.81C164.88 96.1199 167.24 89.9899 168.66 84.9899C171.04 76.5499 169.64 67.2699 169.15 64.6299C167.18 53.9199 161.74 43.8799 152.52 33.9299C147.68 28.7099 141.66 22.2099 125.44 16.5699C110.24 11.2899 101.02 14.1899 92.89 16.7399C87.86 18.3299 81.75 21.2499 71.8 26.8299C60.53 33.1499 57.2 35.5299 52.99 38.5399C51.89 39.3299 50.71 40.1799 49.3 41.1599L47.96 42.0799C41.09 46.8399 37.3 49.4599 35.27 55.6299C33.69 60.4199 35.24 64.8099 39.63 67.9799C41.07 69.0199 42.62 69.6499 44.17 69.9799C39.85 73.2499 37.37 75.4099 35.03 77.8299C31.93 81.0199 30.54 85.1199 31.22 89.0799C32.19 94.7399 37.84 97.5599 40.69 98.2599C43.07 98.8399 45.84 99.2999 49.06 98.7499C46.68 102.18 44.56 106.36 45.03 111.87C45.48 117.05 47.65 120.59 51.86 123.03C53.36 123.9 55.08 124.33 57 124.33C59.72 124.33 62.83 123.46 66.2 121.72C67.38 121.11 69.56 119.66 72.07 117.36C72.19 117.74 72.33 118.06 72.45 118.35C72.75 119.08 72.77 119.14 72.66 119.56C72.09 121.57 70.92 122.85 70.38 123.44C66.27 127.97 57.18 140.9 49.65 152.08C48.71 153.46 47.8 154.82 46.93 156.13C40.67 165.53 37.37 170.89 34.96 174.81C33.65 176.93 32.62 178.61 31.51 180.29C31.46 180.37 31.41 180.45 31.37 180.54C31.37 180.55 31.36 180.56 31.35 180.57C31.06 181.01 30.77 181.48 30.51 181.96C28.88 184.92 27.86 188.68 27.47 193.19C27.31 195.08 27.28 196.72 27.35 198.14C27.61 202.95 29.06 205.35 30.67 207.17C31.82 208.48 33.05 209.49 34.36 210.21H34.37C36.01 211.12 37.79 211.57 39.68 211.57C40.5 211.57 41.35 211.49 42.21 211.32C44.48 210.87 45.95 209.57 47.07 208.04C47.7 207.19 48.23 206.27 48.73 205.39C49.41 204.2 50.11 202.96 51.02 201.99C51.6 201.37 52.18 200.82 52.75 200.35L53.73 199.6C54.17 199.29 54.61 199.03 55.05 198.81C57.21 197.71 59.39 197.57 61.63 198.36C63.55 199.04 65.28 199.71 66.83 200.35C66.89 200.38 66.93 200.4 66.99 200.42H67C67.89 200.8 68.73 201.16 69.5 201.5C71.65 202.48 73.35 203.36 74.65 204.08C75.03 204.3 75.38 204.5 75.69 204.68C76.18 205.05 76.66 205.41 77.15 205.78C84.24 212.24 91.5 216.02 100.47 218.16C107.55 219.85 113.99 220.7 120.03 220.7C128.63 220.7 136.41 218.97 144.02 215.47C149.81 212.81 154.77 209.56 158.79 205.79C159.16 205.45 159.51 205.11 159.86 204.76C161.37 203.25 162.78 201.71 164.07 200.19C167.29 196.41 169.78 192.79 171.24 190.24C175.71 182.47 176.93 179.31 178.62 174.94C178.86 174.33 179.11 173.68 179.38 173C182.47 165.13 183.22 160.48 183.91 155.11C183.91 155.11 183.91 155.11 183.91 155.1C183.94 154.98 183.96 154.86 183.98 154.73C184.26 152.7 184.59 151.44 184.84 150.68C185.09 149.93 185.27 149.69 185.27 149.69C185.35 149.59 185.49 149.42 185.67 149.2C188.76 145.36 191.74 143.4 194.53 143.38H194.6C196.08 143.38 197.03 143.77 198.35 144.32C198.9 144.54 199.5 144.79 200.18 145.02H200.19C200.29 145.05 200.38 145.09 200.49 145.12C201.59 145.47 202.9 145.77 204.53 145.87C209.6 146.19 211.58 143.52 212.33 141.91C213.86 138.64 213.08 134.29 210.25 130.29ZM164.2 130.55C163.92 131.42 163.52 132.52 162.65 134.69C160.58 139.83 157.82 144.68 153.45 151.28C150.58 155.61 146.26 161.77 139.52 166.34C129.6 173.05 121.39 172.88 116.71 172.64C108.94 172.24 103.22 170.21 91.17 164.44C83.07 160.56 74.77 154.46 67.88 151.61C65.5 150.62 60.89 150.13 57.53 150.32C60.52 145.95 63.32 141.94 65.8 138.5C68.29 136.1 70.07 135.79 72.9 135.77C78.84 135.73 83.43 137.88 86.99 139.33C98.86 144.14 105.31 146.73 116.81 148.57C129.84 150.65 136.95 148.24 144.85 144.06C151.86 140.35 154.49 138.67 158.22 135.03C160.79 132.53 161.54 131.23 162.37 129.73C162.95 130.04 163.58 130.32 164.2 130.55ZM84.62 112.5C84.76 112.55 84.89 112.59 85.02 112.64C85.09 112.67 85.17 112.7 85.25 112.72C85.65 112.86 86.04 112.99 86.44 113.12C86.77 113.24 87.11 113.34 87.45 113.44C95.89 116.16 102.67 117.1 115.09 117.45C124.69 117.72 137.71 116.81 145.5 113.43C149.48 111.71 152.43 109.43 154.19 108.07C154.24 108.03 154.28 108 154.33 107.96C154.64 108.4 154.94 108.94 155.07 109.27C156.05 111.86 155.98 115.26 155.83 117.62V117.65C155.82 117.69 155.81 117.72 155.8 117.76C155.13 121.83 153.54 124.9 150.19 127.34C147.58 129.24 144.66 131.12 138.07 132.69C130.05 134.59 125.65 134.71 112.64 133.17C105.08 132.27 100.44 130.52 90.3 127.11C83.47 124.81 78.23 123.86 78.09 120.54C78.5 118.55 77.94 117.16 77.54 116.22C77.21 115.42 77.06 115.06 77.32 114.01C77.63 112.73 78.34 111.19 78.8 110.18C78.82 110.14 78.83 110.11 78.85 110.08C79.54 110.34 80.4 110.73 81.06 111.03C82.1 111.49 83.18 111.98 84.28 112.37C84.4 112.42 84.51 112.46 84.62 112.5ZM63.67 116.8C59.79 118.8 56.5 119.33 54.63 118.25C52.01 116.73 50.83 114.75 50.54 111.4C50.11 106.41 52.87 102.78 55.54 99.2799L55.97 98.7199C59.26 94.3799 63.01 89.8599 64.74 87.7899C65.08 87.3999 65.41 86.9999 65.75 86.5899L66.55 85.6299C66.57 85.6099 66.58 85.5899 66.59 85.5799C67.25 84.8699 67.78 84.2199 68.2 83.6299C68.23 83.5899 68.26 83.5599 68.28 83.5299L68.91 82.7799L68.81 82.7599C70.6 79.9199 69.95 78.5999 69.52 78.2899C68.68 77.6699 67.51 77.4899 65.02 79.5399C63.79 80.5399 62.23 82.3199 61.57 82.9699C61.58 82.9799 61.6 82.9899 61.61 82.9999C61.58 83.0199 61.55 83.0599 61.52 83.0899L61.49 83.0599C61.26 83.3499 61.02 83.6299 60.79 83.9099C60.67 84.0399 60.55 84.1799 60.42 84.3299C56.45 88.9399 53.18 91.6699 50.45 92.6799C47.37 93.8099 44.85 93.5799 42.01 92.8799C40.18 92.4399 37.12 90.7599 36.67 88.1499C36.29 85.9499 37.14 83.5899 39 81.6799C41.97 78.6099 45.3 75.9199 53.22 70.1599C57.67 66.9399 62.93 62.6399 63.71 61.9999C63.74 61.9799 63.77 61.9599 63.8 61.9299C66.34 60.1199 67.52 58.7499 68.63 57.1999C69.45 56.0299 69.43 54.1999 68.09 53.5199C66.69 52.8099 65.74 53.3499 64.08 54.6099C62.83 55.5499 61.41 56.7599 60.32 57.6299C60.1 57.8099 59.89 57.9699 59.71 58.1199C59.67 58.1399 59.64 58.1699 59.61 58.1899L59.62 58.1999C59.45 58.3299 59.29 58.4599 59.13 58.5899C56.78 60.4999 55.22 61.7599 50.98 63.8099C50.8 63.8999 46.35 66.0099 42.87 63.4999C40.4 61.7099 39.69 59.8799 40.52 57.3599C41.97 52.9499 44.65 51.0999 51.11 46.6299L52.45 45.6999C53.89 44.6999 55.09 43.8399 56.21 43.0399C60.44 40.0099 63.5 37.8199 74.5 31.6499C84.1 26.2699 89.9 23.4799 94.55 22.0199C102.22 19.6099 110.15 17.1099 123.63 21.7999C138.54 26.9799 143.81 32.6699 148.46 37.6899C156.95 46.8399 161.93 55.9899 163.71 65.6399C164.15 67.9799 165.4 76.1899 163.33 83.4799C162.01 88.1699 159.92 93.4799 153.68 100.46C147.48 107.41 139.84 109.78 134.52 110.54C127.78 111.51 121.96 112.07 115.51 111.93C114.89 111.92 114.26 111.9 113.62 111.87C108.56 111.66 103.04 111.02 96.34 109.82C93.52 109.31 91.24 108.79 89.27 108.22C88.35 107.93 87.41 107.62 86.44 107.28C86.31 107.23 86.18 107.18 86.06 107.14C85.82 107.05 85.59 106.95 85.36 106.86C85.11 106.76 84.86 106.66 84.61 106.54C83.62 106.1 82.67 105.62 81.72 105.11C82.03 104.63 82.39 104.04 82.76 103.33C84.17 100.64 82.48 99.4299 81.92 99.1199C81.53 98.8999 79.48 97.9299 77.94 100.55C77.37 101.52 76.81 102.43 76.28 103.29C76.18 103.43 76.08 103.58 75.99 103.74C74.49 106.12 73.13 108.04 71.94 109.48C68.7 113.39 65.22 116 63.67 116.8ZM63.3 193.65C62.61 193.4 61.85 193.19 61.04 193.05C59.78 192.83 58.4 192.77 56.92 192.99C55.89 193.15 54.83 193.44 53.73 193.92C51.69 194.78 49.54 196.25 47.36 198.58C46.82 199.15 46.36 199.75 45.95 200.35C45.35 201.22 44.85 202.1 44.38 202.92C43.21 204.99 42.48 206.17 41.25 206.41C38.54 206.95 36.44 206.16 34.43 203.87C33.8 203.16 32.9 202.14 32.51 199.55C32.29 198.12 32.23 196.22 32.46 193.62C32.68 191.04 33.14 188.74 33.82 186.8C33.83 186.78 33.84 186.76 33.84 186.74C34.47 185.31 35.02 184.84 36.47 184.36C36.76 184.3 37.07 184.23 37.4 184.16C39.15 183.78 41.54 183.25 43.84 182.98L44.68 182.88C48.42 182.41 51.65 182.01 57.28 185.31C58.45 186 59.56 186.84 60.63 187.78C61.35 188.4 62.04 189.07 62.71 189.77C62.82 189.88 62.92 189.98 63.01 190.09C64.57 191.73 66.02 193.51 67.39 195.18C66.13 194.68 64.77 194.17 63.3 193.65ZM178.26 155.62C177.86 158.61 177.39 161.37 176.39 164.76C176.38 164.77 176.38 164.77 176.38 164.78C175.84 166.62 175.15 168.64 174.23 170.98C173.96 171.67 173.71 172.32 173.46 172.95C171.8 177.24 170.71 180.08 166.45 187.48C164.63 190.63 161.07 195.62 156.44 200.35C156.28 200.52 156.12 200.68 155.95 200.85C152.21 204.59 147.42 207.82 141.71 210.45C129.8 215.92 117.85 216.62 101.76 212.78C93.06 210.71 86.3 207.03 79.43 200.35C78.65 199.6 77.87 198.81 77.09 197.97C75.77 196.56 74.43 195.04 73.07 193.39C72.67 192.9 72.25 192.39 71.83 191.87C70.96 190.81 70.07 189.71 69.13 188.62C66.54 185.6 63.62 182.62 60.08 180.54C57.89 179.26 55.95 178.42 54.18 177.89C52.05 177.24 50.18 177.03 48.48 177.03C47.72 177.03 46.99 177.07 46.29 177.13C45.5 177.2 44.74 177.29 43.99 177.39L43.19 177.49C41.9 177.64 40.62 177.86 39.43 178.09C39.51 177.96 39.59 177.84 39.67 177.71C41.35 174.98 43.46 171.54 46.73 166.51C49.97 163.73 52.45 163.57 55.85 163.2C63.62 162.35 73.21 170.73 86.63 180.31C98.79 189 107.29 191.16 116.65 192.07C130.92 193.45 141.97 188.68 150.3 179.71C154.15 175.57 160.18 168.61 167.05 151.92C170.08 144.56 170.43 143.41 172.61 135.65C173.14 133.77 173.56 132.4 173.84 131.41C173.84 131.41 173.84 131.41 173.85 131.41C175.8 131.04 177.05 130.55 177.91 130.22C177.93 130.21 177.94 130.21 177.96 130.2C178.34 131.16 178.77 132.84 179.12 134.88C179.7 138.39 180.03 142.99 179.43 146.89C179.07 149.17 178.83 151.11 178.6 152.99C178.56 153.34 178.51 153.68 178.48 154.02H178.47V154.07C178.47 154.07 178.47 154.07 178.47 154.08C178.4 154.6 178.33 155.11 178.26 155.61V155.62ZM207.32 139.58C207.21 139.8 206.9 140.47 204.86 140.35C202.98 140.24 201.83 139.77 200.49 139.21C200.48 139.21 200.47 139.2 200.46 139.2C198.91 138.57 197.17 137.85 194.6 137.85H194.49C191.33 137.87 188.23 139.17 185.23 141.72C185.2 138.92 184.95 135.88 184.43 133.15C184.11 131.36 183.67 129.71 183.12 128.35C184.61 127.93 186.28 127.52 187.77 127.27C191.62 126.64 194.17 126.96 197.53 127.77C198.07 127.9 198.6 128.06 199.11 128.25C199.59 128.42 200.05 128.62 200.49 128.85C202.53 129.87 204.26 131.4 205.73 133.48C207.33 135.74 207.96 138.19 207.32 139.58Z" fill="#232531"/>
<path d="M119.41 82.92C119.75 83.11 120.12 81.8 122.5 81.33C124.86 80.86 125.63 81.92 125.91 81.54C126.97 80.17 127.44 78.21 125.78 69.45C124.48 62.58 123.62 61.16 122.3 60.03C121.83 59.63 120.22 58.7 118.29 59.2C116.02 59.78 115.3 60.78 114.91 61.46C113.93 63.13 113.94 65 115.14 71.36C116.91 80.73 118.04 82.18 119.41 82.92Z" fill="#232531"/>
<path d="M145.37 80.0298C145.38 80.0398 145.39 80.0498 145.4 80.0598C145.93 80.4598 146.07 79.1298 148.54 78.8798C150.99 78.6298 151.44 79.7698 151.92 79.2898C151.93 79.2798 151.93 79.2798 151.93 79.2598C152.65 76.5698 152.67 72.6798 151.93 67.9598C151.18 63.2098 150.92 61.9798 149.88 59.7198C149.08 57.9798 147.07 56.9998 145.07 57.4798C143.45 57.8698 142.22 58.8498 141.86 60.6698C141.46 62.6998 141.69 65.6098 142.48 70.2098C143.26 74.6698 144.27 78.3298 145.37 80.0298Z" fill="#232531"/>
</svg>
