<svg width="213" height="215" viewBox="0 0 213 215" fill="none" xmlns="http://www.w3.org/2000/svg">
<path d="M61.54 203.94H52.85C39.93 203.94 28.45 197.82 21.13 188.32C26.34 191.3 31.3 192.72 37.15 191.14C40.89 190.13 42.94 189.37 46.64 189.69C46.64 189.69 48.63 192.27 54.1 193.95C57.08 194.87 60.59 194.52 60.59 194.52C60.97 195.97 61.17 195.73 60.81 198.29C60.6 199.77 60.94 202.14 61.54 203.94Z" fill="#232531"/>
<path d="M12.85 154.13V44.9399C12.85 22.2999 31.2 3.93994 53.85 3.93994H71.67C68.03 6.00994 64.27 8.71994 60.64 12.2499C52.33 20.3299 46.72 29.7499 44.16 35.5899C38.91 47.5599 36.84 66.0699 42.31 84.3099C45.87 96.1499 55.06 108.24 61.33 113.31C64.83 116.14 63.41 117.29 63.74 120.85C64.37 127.77 65.95 124.05 60 131.18C58.07 133.49 54.18 138.25 52.54 143.1C50.15 150.22 50.87 154.18 49.65 155.65C49.13 156.27 46.29 158.21 44.82 160.52C43.82 162.08 41.07 160.19 36.87 158.01C32.84 155.91 29.82 154.31 24.16 153.22C20.68 152.54 16.14 152.65 12.85 154.13Z" fill="#232531"/>
<path d="M212.85 43.9399V163.94C212.85 180.14 203.23 194.08 189.39 200.37C189.51 198.85 189.53 197.12 189.42 195.18C188.66 182.31 187.85 171.36 184.6 158.67C182.73 151.34 178.99 140.64 174 133.34C171.7 129.97 167.85 125.94 163.26 122.35C162.24 121.54 160.97 120.61 162.38 120.12C164.3 119.46 170.05 117.72 175.57 114.29C180.01 111.53 183.74 107.8 186.28 102.43C187.78 99.2799 187.77 96.9999 186.54 95.1399C186.15 94.5499 184.96 93.9799 182.81 93.4499C180.99 93.0099 178.46 92.5399 178.78 92.3799C180.71 91.3899 181.41 90.9999 183.86 89.2699C185.16 88.3599 186.3 87.3599 187.32 86.2799C189.43 84.0299 190.57 81.8599 191.27 80.4599C192.49 78.0399 193.4 75.9899 194.04 71.7499C194.55 68.3699 193.7 65.4499 193.28 64.9299C192.51 63.9999 191.19 63.2399 188.75 62.7899C187.04 62.4699 186.61 62.6399 185.43 62.4499C185.4 62.4399 185.1 62.3899 185.1 62.3799C185.77 61.6199 188.77 58.9899 190.84 54.8399C192.84 50.8399 193.92 47.7099 194.16 44.1699C194.4 40.5999 194.38 37.0499 192.29 34.8799C190.09 32.5999 182.77 33.7499 176.43 31.3499C172.87 29.9899 171.15 27.7899 166.1 22.8499C166.1 22.8499 157.48 13.4499 146.04 5.21994C145.43 4.77994 144.79 4.35994 144.12 3.93994H172.85C194.94 3.93994 212.85 21.8499 212.85 43.9399Z" fill="#232531"/>
<path d="M59.65 180.3C59.51 179.98 59.38 179.66 59.25 179.35C56.74 173.38 55.61 169.42 54.95 166.29C54.87 165.89 54.79 165.51 54.72 165.14C54.12 165.6 53.55 166.07 53.02 166.5C52.85 166.64 52.6 166.84 52.36 167.05C52.47 167.21 52.58 167.35 52.67 167.47C52.68 167.49 52.7 167.5 52.71 167.52C52.99 167.88 53.24 168.22 53.42 168.49C55.11 171.1 56.09 175.07 56.18 177.65C56.21 178.37 56.18 179.09 56.11 179.8C55.99 181.27 55.72 182.66 55.48 183.78C56.63 184.21 58.17 184.69 59.07 184.83C60.02 184.97 60.89 185.07 61.7 185.13C61.68 185.09 61.67 185.05 61.65 185.01C61.06 183.6 60.4 182.05 59.65 180.3Z" fill="#E57E25"/>
<path d="M139.54 138.72C133.28 141.64 129.25 145.54 124.31 147.54C120.07 149.25 114.67 149.51 111.84 148.41C109.52 147.51 108.83 147.33 107.09 145.45C105.29 143.51 105.57 143.49 104.02 141.25C103.27 140.17 102.92 139.88 102.18 139.8C101.29 139.71 100.6 140.59 99.97 141.59C97.72 145.21 94.51 147.1 92.53 148.04C89.27 149.59 85.46 150.31 81.87 147.61C79.81 146.06 78.87 144.45 76.02 142.6C73 140.64 67.96 140.94 65.45 141.54C65.34 141.57 65.24 141.6 65.14 141.62C65.08 141.72 65.01 141.81 64.94 141.92C62.7 145.39 62.15 146.57 61.49 149C62.52 148.58 63.65 148.26 64.99 148.05C67.79 147.62 70.64 147.78 72.37 148.98C75.37 151.07 76.86 152.66 80.35 154.53C84.81 156.92 90.82 156.2 94.66 154.5C98.86 152.64 100.76 150.55 101.74 150.61C103.18 150.7 104.5 153.3 108.93 154.98C113.8 156.81 119.18 157.22 124.51 155.54C130.84 153.55 133.03 151.67 140.64 146.94C144.62 144.46 150.04 142.73 155.3 143.72C161.69 144.93 166.26 147.25 166.26 147.25C167.5 147.88 168.68 148.73 169.68 149.44C168.01 144.87 166.6 141.74 164.69 139.13C162.4 137.98 158.56 136.74 155.48 136.16C151.71 135.48 146.12 135.65 139.54 138.72Z" fill="#E57E25"/>
<path d="M103.44 185.87C104.25 186.48 104.56 186.71 105.32 186.91C106.76 187.27 108.69 187.2 111.18 186.68C109.29 185.01 108.63 184.07 107.67 182.72C106.34 180.85 106.22 179.35 105.84 176.82C105.26 173.04 105.96 172.23 104.9 170C104.13 168.36 103.14 167.34 100.75 166.9C98.87 166.56 96.67 167.07 95.07 168.82C92.78 171.33 92.28 172.97 91.31 176.72C90.88 178.37 90.71 179.6 90.71 180.69C92.9 180.91 95.45 181.5 98.51 182.9C101.11 184.09 102.46 185.12 103.44 185.87Z" fill="#E57E25"/>
<path d="M153.51 204.46C153.8 204.29 154.08 204.11 154.36 203.94C155.96 202.92 157.34 201.8 158.55 200.62C161.81 197.47 163.86 193.86 165.88 190.34C166.89 188.58 167.48 187.14 167.85 185.54C168.16 184.23 168.31 182.96 168.31 181.75C168.31 180.93 168.24 180.14 168.1 179.37C167.93 178.46 167.67 177.61 167.36 176.82C167.35 176.79 167.33 176.76 167.32 176.73C167.22 176.53 167.13 176.36 167.05 176.22L167.09 176.2C165.29 172.31 162.02 169.97 160.88 169.24C156.55 166.48 153.52 166.43 151.89 166.4C149.89 166.35 144.78 166.69 141.25 170.52C141.03 170.76 140.82 171 140.62 171.22C145.18 171.48 149.69 172.76 150.92 174.26C151.93 175.48 151.93 177.16 150.93 178.35C149.43 180.12 147.42 179.26 146.45 178.85C145.5 178.45 143.9 177.77 141.92 177.46C141.22 177.35 140.63 177.27 140.13 177.21C137.97 177.07 135.85 177.18 134.7 177.83C132.88 178.85 132.06 179.65 132.05 179.66C131.92 179.79 131.81 179.92 131.71 180.04C133.92 182.07 135.82 184.79 136.88 187.01C138.49 190.36 139.39 197.28 138.15 201.17C137.12 204.4 135.71 206.54 134.24 207.95C135.46 208.24 136.8 208.44 138.12 208.46C145.86 208.6 151.72 205.5 153.34 204.55C153.4 204.52 153.46 204.49 153.51 204.46Z" fill="#E57E25"/>
<path d="M126.84 204.3C127.36 204.58 128.12 204.54 128.73 204.47C130.63 203.84 131.79 201.35 132.44 199.35C133.17 197.05 132.5 191.74 131.48 189.6C129.8 186.09 126.76 183.32 125.71 183.11C125.63 183.11 125.55 183.1 125.48 183.09C125.13 183.04 124.92 183.02 124.54 183.06C123.91 183.14 123.35 183.43 122.93 183.8C122.99 183.82 123.04 183.85 123.09 183.87C127.25 186.03 127.73 192.5 127.78 194.43C127.79 194.77 127.79 195.11 127.78 195.44C127.72 197.73 127.25 199.75 126.75 201.39C126.55 202.06 126.35 202.67 126.17 203.21C126.11 203.39 126.04 203.6 125.98 203.79C126.06 203.84 126.14 203.89 126.22 203.94C126.4 204.07 126.61 204.19 126.84 204.3Z" fill="#E57E25"/>
<path d="M190.71 71.7898C191.03 69.8498 190.8 68.4598 190 67.4298C188.87 65.9898 187.07 65.7398 183.13 65.1998C180.85 64.8898 177.96 64.4898 175.31 63.7998C178.09 63.1898 180.64 61.9598 182.64 60.1698C188.58 54.8298 191.19 46.2198 189.9 41.5198C189.35 39.4998 188.03 38.1498 186.28 37.7998C185.85 37.7098 185.42 37.6998 184.63 37.6798C182.44 37.6298 177.32 37.4898 172.72 35.2998C170.13 34.0598 166.95 30.7598 163.88 27.5698C163.37 27.0398 162.86 26.5098 162.34 25.9798C154.33 17.7498 144.55 8.74976 132.81 4.47976C132.3 4.28976 131.79 4.10976 131.28 3.93976C127.41 2.63976 123.65 1.76976 120.05 1.21975H120.04C118.03 0.899755 116.08 0.689755 114.2 0.559755C108.1 0.139755 102.73 0.569756 98.54 1.19976C95.7 1.63976 93.4 2.16976 91.8 2.59976C90.71 2.88976 89.13 3.30976 87.22 3.93976C80.14 6.25976 68.37 11.3898 58.57 23.2998C52.4 30.7898 44.98 43.6798 44.62 62.4898C44.52 67.7698 44.28 80.1497 51.83 93.3098C56.53 101.49 62.37 107.82 69.28 112.21C68.99 112.82 68.78 113.49 68.71 114.18C68.38 117.76 68.31 119.6 69.02 123.46C69.41 125.57 69.75 126.94 70.02 127.85C69.38 128.5 68.73 129.14 67.84 129.98C67.33 130.46 66.84 130.9 66.36 131.33C64.35 133.14 62.26 135.02 59.91 138.66C56.75 143.54 56.29 145.03 55.2 149.44L55.02 150.18C54.41 152.59 53.9 155.21 53.91 158.26C52.22 159.42 50.62 160.71 49.16 161.91C47.92 162.93 46.56 164.04 46.04 165.48C44.21 165.78 42.68 165.8 41.25 165.33C38.32 164.36 36.85 163.45 34.16 161.79L32.8 160.95C29.12 158.7 25.33 157.49 21.56 157.34L20.94 157.31C18.91 157.21 16.05 157.08 12.85 158.32C12.06 158.62 11.24 159.01 10.41 159.51C9.98 159.77 9.53 160.08 9.08 160.43C6.88 162.13 4.45 164.84 2.35 167.98C0.830002 170.26 -1.15 175.74 2.27 180.13C4.18 182.57 7.15 184.13 9.87 184.13H9.96C12.25 184.09 13.67 183.58 14.93 183.12C15.12 183.05 15.32 182.98 15.51 182.91C16.02 182.73 16.55 182.56 17.2 182.42L17.35 182.38L17.48 182.35C18.76 182.06 19.69 181.85 23.48 183.94L23.58 184C27.24 186.02 29.25 187.14 31.86 187.38C32.17 187.41 32.47 187.42 32.77 187.42C34.9 187.42 36.76 186.75 38.44 186.15C39.33 185.82 40.18 185.52 40.99 185.34C42.44 185.03 45.56 184.77 49.13 185.49C49.2 187.86 51.81 188.82 53.57 189.47C54.89 189.96 56.79 190.55 58.18 190.76C60.64 191.13 62.69 191.22 64.18 191.28C64.24 191.28 64.31 191.29 64.37 191.29C64.92 192.5 65.46 193.62 66.03 194.7C65.07 196.67 64.49 198.99 65.4 201.34C65.71 202.14 66.22 203.06 67.03 203.94C68.11 205.1 69.72 206.19 72.15 206.89C73.89 207.39 75.41 207.34 76.77 207.12C77.51 207 78.21 206.83 78.88 206.66C80.45 206.27 81.81 205.94 83.61 206.29C85.63 206.68 86.98 207.55 87.78 208.06C91.04 210.16 92.13 210.58 94.49 211.42L95.1 211.63C96.97 212.3 99.17 212.64 101.38 212.64C102.54 212.64 103.71 212.55 104.82 212.35C108.56 211.7 110.22 210.77 113.38 208.64L113.89 208.29C115.14 207.44 116.12 206.77 117.45 206.47C118.61 206.22 119.44 206.19 120.02 206.25C120.16 206.55 120.34 206.84 120.58 207.12C121.13 207.75 122.5 208.81 124.07 209.63C124.37 209.79 124.68 209.92 124.98 210.03C126.95 212.53 133.86 214.41 138.06 214.46H138.49C147.54 214.46 154.45 210.86 156.37 209.74C157.17 209.27 157.93 208.79 158.65 208.29C159.59 208.98 160.65 209.7 161.99 210.42C162.9 210.91 165.17 212.13 169.17 212.13C170.65 212.13 172.36 211.96 174.33 211.53C176.51 211.06 178.39 210.09 179.88 208.73C180.13 208.5 180.38 208.25 180.6 207.99L180.61 208C180.62 207.99 180.63 207.98 180.63 207.97C180.65 207.95 180.66 207.94 180.67 207.92C181.98 206.46 182.91 204.65 183.4 202.53C183.45 202.33 183.49 202.12 183.53 201.91C184.79 195.3 184.04 187.59 183.08 179.6C181.44 165.81 177.98 155.05 176.96 152.08C173.88 143.1 171.73 137.34 166.71 132.31C162.09 127.68 159.48 125.41 155.14 121.66L153.63 120.34C153.53 119.45 153.49 117.85 153.47 116.25C155.9 116.25 159.7 116.08 163.98 114.95C170.12 113.32 182.49 105.27 182.34 99.7598C182.26 96.9298 179.64 96.2698 176.32 95.4398C173.66 94.7798 170.03 93.8698 167.41 92.1498C167.17 91.9898 166.93 91.8298 166.69 91.6598C171 91.6998 175.85 90.6598 180.32 87.7198C186.68 83.5298 190.07 75.7198 190.71 71.7898ZM164.83 205.13C164.3 204.84 163.82 204.56 163.38 204.26C163.49 204.15 163.59 204.05 163.69 203.94C167.03 200.42 169.2 196.61 171.09 193.32C171.1 193.31 171.1 193.3 171.11 193.29C171.67 192.31 172.31 191.08 172.87 189.59C173.22 190.49 173.51 191.28 173.7 191.87C173.88 192.4 174.05 192.93 174.24 193.47C175.37 196.86 177.05 201.86 176.22 203.79C176.18 203.9 176.12 204 176.06 204.09C175.94 204.22 175.81 204.33 175.68 204.44C174.98 205.03 174.11 205.44 173.05 205.67C167.91 206.79 165.59 205.54 164.83 205.13ZM110.03 203.66C109.89 203.76 109.75 203.85 109.62 203.94C107.15 205.59 106.27 206.01 103.79 206.44C102.04 206.75 99.37 206.79 97.11 205.98L96.49 205.76C94.92 205.21 94.17 204.94 92.51 203.94C92.07 203.68 91.56 203.36 90.96 202.97C90.04 202.38 87.9 201.01 84.75 200.4C81.65 199.8 79.32 200.37 77.45 200.83C75.81 201.24 74.9 201.43 73.8 201.12C72.27 200.68 71.33 200.03 71 199.18V199.17C70.6 198.11 72.54 195.45 73.18 194.56L73.37 194.3C73.63 193.93 73.91 193.58 74.19 193.24C76.1 191 78.32 189.53 79.03 189.16C83.02 187.05 86.17 186.68 87.35 186.62C89.62 186.5 92.25 186.63 95.99 188.34C98 189.27 98.96 190 99.81 190.65C100.83 191.42 101.89 192.23 103.83 192.72C106.73 193.46 110.23 193.22 114.84 191.96L115.12 191.88C116.58 191.49 118.75 190.9 120.67 189.64C121.14 190.43 121.72 192.15 121.77 194.58C121.77 194.75 121.78 194.92 121.76 195.09C121.74 197.04 121.28 198.79 120.8 200.29C119.41 200.13 117.86 200.24 116.16 200.62C115.97 200.66 115.78 200.71 115.59 200.77H115.58C113.43 201.35 111.88 202.4 110.5 203.34L110.03 203.66ZM36.41 180.5C34.9 181.04 33.59 181.52 32.41 181.4C31.06 181.28 29.62 180.48 26.48 178.75L26.38 178.69C23.29 176.98 21.2 176.33 19.5 176.19C18.25 176.08 17.22 176.26 16.15 176.5L15.9 176.56C15.57 176.64 15.25 176.71 14.96 176.8C14.12 177.03 13.45 177.27 12.87 177.48C11.8 177.87 11.15 178.11 9.88 178.13C9.12 178.14 7.84 177.51 7 176.44C5.62 174.67 6.92 171.94 7.34 171.31C9 168.83 10.95 166.61 12.56 165.32C12.66 165.24 12.76 165.17 12.86 165.1C13.08 164.93 13.3 164.78 13.51 164.65C16.11 163.09 18.42 163.2 20.65 163.31L21.32 163.34C24.1 163.45 26.84 164.34 29.67 166.07L31.01 166.89C33.04 168.15 34.66 169.14 36.79 170.06C37.56 170.39 38.4 170.71 39.35 171.03C42.42 172.04 45.38 171.74 48 171.23C48.15 171.43 48.29 171.61 48.39 171.76C49.48 173.44 50.13 176.38 50.18 177.87C50.19 178.29 50.18 178.74 50.14 179.19C50.14 179.31 50.12 179.44 50.11 179.57C45.96 178.76 42.15 178.95 39.72 179.48C38.52 179.74 37.45 180.12 36.41 180.5ZM59.07 184.83C58.17 184.69 56.63 184.21 55.48 183.78C55.72 182.66 55.99 181.27 56.11 179.8C56.18 179.09 56.21 178.37 56.18 177.65C56.09 175.07 55.11 171.1 53.42 168.49C53.24 168.22 52.99 167.88 52.71 167.52C52.7 167.5 52.68 167.49 52.67 167.47C52.58 167.35 52.47 167.21 52.36 167.05C52.6 166.84 52.85 166.64 53.02 166.5C53.55 166.07 54.12 165.6 54.72 165.14C54.79 165.51 54.87 165.89 54.95 166.29C55.61 169.42 56.74 173.38 59.25 179.35C59.38 179.66 59.51 179.98 59.65 180.3C60.4 182.05 61.06 183.6 61.65 185.01C61.67 185.05 61.68 185.09 61.7 185.13C60.89 185.07 60.02 184.97 59.07 184.83ZM91.31 176.71C92.28 172.96 92.78 171.33 95.07 168.81C96.67 167.06 98.87 166.55 100.75 166.89C103.14 167.32 104.12 168.35 104.9 169.99C105.95 172.22 105.26 173.02 105.84 176.81C106.23 179.35 106.35 180.84 107.67 182.71C108.63 184.07 109.29 185 111.18 186.67C108.69 187.19 106.76 187.26 105.32 186.9C104.56 186.7 104.25 186.47 103.44 185.86C102.46 185.11 101.11 184.08 98.5 182.88C95.44 181.48 92.89 180.89 90.7 180.67C90.71 179.6 90.88 178.36 91.31 176.71ZM126.16 203.21C126.34 202.67 126.54 202.06 126.74 201.39C127.24 199.75 127.71 197.73 127.77 195.44C127.78 195.11 127.78 194.77 127.77 194.43C127.72 192.5 127.24 186.03 123.08 183.87C123.03 183.85 122.98 183.82 122.92 183.8C123.34 183.43 123.9 183.14 124.53 183.06C124.91 183.02 125.12 183.04 125.47 183.09C125.54 183.1 125.62 183.11 125.7 183.11C126.75 183.33 129.79 186.09 131.47 189.6C132.49 191.73 133.17 197.04 132.43 199.35C131.79 201.36 130.63 203.84 128.72 204.47C128.1 204.54 127.35 204.57 126.83 204.3C126.6 204.19 126.39 204.07 126.2 203.94C126.12 203.89 126.04 203.84 125.96 203.79C126.03 203.6 126.1 203.39 126.16 203.21ZM134.25 207.95C135.72 206.54 137.12 204.4 138.16 201.17C139.4 197.27 138.5 190.36 136.89 187.01C135.83 184.79 133.93 182.07 131.72 180.04C131.82 179.92 131.93 179.79 132.06 179.66C132.07 179.65 132.89 178.85 134.71 177.83C135.86 177.18 137.98 177.07 140.14 177.21C140.64 177.27 141.23 177.35 141.93 177.46C143.91 177.77 145.51 178.45 146.46 178.85C147.43 179.26 149.44 180.12 150.94 178.35C151.94 177.16 151.94 175.48 150.93 174.26C149.7 172.76 145.19 171.48 140.63 171.22C140.83 171 141.04 170.76 141.26 170.52C144.79 166.69 149.9 166.35 151.9 166.4C153.53 166.43 156.56 166.48 160.89 169.24C162.03 169.97 165.3 172.31 167.1 176.2L167.06 176.22C167.14 176.36 167.23 176.53 167.33 176.73C167.34 176.76 167.36 176.79 167.37 176.82C167.68 177.61 167.94 178.46 168.11 179.37C168.25 180.14 168.32 180.93 168.32 181.75C168.32 182.96 168.17 184.23 167.86 185.54C167.49 187.14 166.9 188.58 165.89 190.34C163.87 193.86 161.82 197.47 158.56 200.62C157.35 201.8 155.97 202.92 154.37 203.94C154.09 204.11 153.81 204.29 153.52 204.46C153.47 204.49 153.41 204.52 153.36 204.55C151.74 205.5 145.88 208.6 138.14 208.46C136.81 208.44 135.47 208.24 134.25 207.95ZM169.68 149.46C168.68 148.75 167.49 147.9 166.26 147.27C166.26 147.27 161.69 144.95 155.3 143.74C150.05 142.74 144.62 144.48 140.64 146.96C133.04 151.69 130.84 153.57 124.51 155.56C119.18 157.24 113.79 156.83 108.93 155C104.49 153.33 103.17 150.73 101.74 150.63C100.76 150.57 98.86 152.66 94.66 154.52C90.82 156.22 84.81 156.93 80.35 154.55C76.86 152.68 75.36 151.09 72.37 149C70.65 147.79 67.79 147.64 64.99 148.07C63.65 148.27 62.53 148.6 61.49 149.02C62.15 146.59 62.7 145.41 64.94 141.94C65.01 141.83 65.08 141.74 65.14 141.64C65.25 141.61 65.34 141.58 65.45 141.56C67.96 140.96 73 140.66 76.02 142.62C78.87 144.47 79.81 146.08 81.87 147.63C85.46 150.33 89.27 149.61 92.53 148.06C94.51 147.12 97.72 145.23 99.97 141.61C100.59 140.61 101.28 139.73 102.18 139.82C102.92 139.89 103.27 140.18 104.02 141.27C105.57 143.51 105.29 143.53 107.09 145.47C108.83 147.34 109.53 147.53 111.84 148.43C114.67 149.52 120.07 149.27 124.31 147.56C129.25 145.57 133.29 141.66 139.54 138.74C146.12 135.67 151.71 135.5 155.48 136.21C158.56 136.78 162.4 138.03 164.69 139.18C166.6 141.76 168.01 144.89 169.68 149.46ZM140.46 110.91C142.93 109.74 145.09 108.57 147.08 107.47C147.11 107.61 147.14 107.75 147.16 107.9C147.32 108.78 147.39 109.61 147.42 110.36C147.43 111.14 147.44 112.08 147.44 113.07C147.44 114.7 147.45 116.07 147.47 117.24V117.39C147.47 117.41 147.47 117.43 147.47 117.46C147.33 121.92 145.37 122.62 141.87 124.67C136.11 128.06 131.09 130.06 118.69 132.68C109.09 134.71 102.95 134.73 94.6 134.36C85.94 133.97 76.42 129.71 75.56 125.3H75.55C75.37 124.6 75.16 123.67 74.92 122.39C74.37 119.37 74.39 118.05 74.65 115.15C75.65 115.61 76.66 116.03 77.69 116.42C85.81 119.47 93.55 120.52 100.53 120.52C108.44 120.52 115.38 119.18 120.8 117.85C129.31 115.76 135.5 113.31 140.46 110.91ZM153.45 110.24C153.44 110.24 153.44 110.24 153.43 110.24C153.43 110.2 153.43 110.16 153.42 110.12C153.37 109.18 153.29 108.06 153.07 106.83C152.71 104.88 152.03 103.15 151.03 101.68H151.02C150.1 100.32 148.32 99.9098 146.91 100.7L145.4 101.54C143.86 102.39 142.28 103.28 140.57 104.16C135.38 106.87 129.03 109.65 119.38 112.01C104.36 115.68 91.78 115.3 79.8 110.79C76.49 109.55 73.39 107.88 70.51 105.77C65.28 101.99 60.77 96.8198 57.04 90.3198C50.31 78.5998 50.52 67.3898 50.62 62.5998C50.94 45.5098 57.64 33.8698 63.2 27.1098C74.43 13.4698 88.68 9.64976 93.36 8.38976C94.42 8.09976 96.13 7.69976 98.36 7.32976C101.24 6.84976 104.99 6.42976 109.3 6.42976C111.29 6.42976 113.4 6.51976 115.6 6.72976C120.32 7.17976 125.47 8.19976 130.76 10.1198C141.36 13.9798 150.5 22.4198 158.05 30.1698C158.55 30.6798 159.06 31.2098 159.56 31.7298C163.16 35.4698 166.56 39.0098 170.14 40.7098C175.71 43.3698 181.53 43.5998 184.23 43.6698C184.41 45.8798 183.1 51.6798 178.63 55.7098C175.83 58.2198 170.95 58.9698 166.76 57.5198C165.33 57.0298 163.09 55.0098 162.35 54.3398C160.28 52.4798 158.74 53.0398 157.82 53.8398L155.86 55.6398L157.32 57.8398C160.03 61.9298 162.88 65.5398 170.25 68.4698C174.16 70.0198 178.87 70.6698 182.31 71.1398C183.08 71.2498 183.96 71.3698 184.68 71.4898C184.01 74.2398 181.42 79.8098 177.02 82.7098C171.37 86.4398 164.9 86.1198 161.09 84.7098C160.1 84.3498 158.97 83.4798 158.36 83.0198C156.67 81.7098 155.17 81.6198 153.92 82.7398C152.98 83.5798 152.46 85.1298 153.42 86.6998C153.85 87.4198 158.32 93.3798 164.12 97.1698C167.59 99.4398 171.79 100.49 174.86 101.26C174.92 101.28 174.98 101.29 175.04 101.31C172.46 103.94 166.79 108 162.45 109.14C158.82 110.1 155.62 110.24 153.45 110.24Z" fill="#232531"/>
<path d="M79.64 52.3696C78.89 50.5196 77.02 48.0896 75.02 48.3896C73.01 48.6996 71.76 49.6596 71.08 52.5096C69.9 57.4596 69.47 63.4696 69.5 68.9696C69.53 74.4096 70.65 76.2096 71.78 76.9996C73.53 78.2196 76.2 78.1196 78 77.0696C79.11 76.4296 80.45 74.1296 80.96 70.5096C81.54 66.4496 81.57 65.1396 81.45 62.3196C81.3 59.1296 81.02 55.7696 79.64 52.3696Z" fill="#232531"/>
<path d="M112 52.1899C109.89 51.1299 106.72 53.0099 105.18 56.5799C103.4 60.6799 103.16 63.8799 103.04 65.5499C102.79 69.0099 102.88 72.2599 103.03 74.5999C103.19 77.0299 103.81 78.7399 104.67 79.4499C106.11 80.6299 107.31 80.8799 109.16 80.6399C110.69 80.4399 112.28 79.3999 112.85 77.9599C113.74 75.7099 114.14 69.4299 114.39 65.9599C114.8 60.1499 114.73 53.5599 112 52.1899Z" fill="#232531"/>
</svg>
