<svg width="122" height="142" viewBox="0 0 122 142" fill="none" xmlns="http://www.w3.org/2000/svg">
<path d="M95.5801 59.04L98.5401 58.36L106.58 56.49L119.1 53.59C119.9 53.4 120.71 53.49 121.41 53.79V34.59C121.41 21.34 110.66 10.59 97.4101 10.59H59.4401L59.1401 9.30003C59.1101 9.14003 59.0701 9.00003 59.0301 8.84003C57.3501 2.67003 51.0401 -1.14997 44.7501 0.310034L44.5601 0.360034C44.0801 0.460034 43.6301 0.600034 43.1901 0.760034C42.7501 0.920034 42.3201 1.10003 41.9001 1.31003C41.6401 1.45003 41.3701 1.59003 41.1001 1.75003C40.9501 1.85003 40.8001 1.94003 40.6601 2.03003C40.2801 2.28003 39.9101 2.56003 39.5601 2.86003C39.4201 2.96003 39.3001 3.07003 39.1801 3.19003C39.0601 3.30003 38.9401 3.41003 38.8201 3.53003C37.3401 5.00003 36.2701 6.84003 35.7101 8.84003C35.5501 9.41003 35.4301 9.99003 35.3601 10.59H24.5901C11.3401 10.59 0.590088 21.34 0.590088 34.59V81.06C0.770088 80.98 0.960087 80.93 1.15009 80.88L13.6801 77.98L21.7301 76.12L24.6801 75.44C26.7101 74.96 28.7201 76.23 29.2001 78.26L29.2401 78.45C29.7101 80.48 28.4501 82.5 26.4301 82.97L23.4801 83.65L15.4201 85.51L2.90009 88.41C2.10009 88.6 1.30009 88.51 0.590088 88.21V107.41C0.590088 120.66 11.3401 131.41 24.5901 131.41H62.5601L62.8601 132.71C62.8901 132.86 62.9401 133.01 62.9801 133.16C63.7701 136.08 65.6101 138.56 68.1901 140.18C70.1301 141.38 72.3001 142 74.5201 142C75.4301 142 76.3401 141.89 77.2501 141.69L77.4501 141.64C81.8801 140.61 85.1601 137.24 86.3001 133.16C86.4601 132.59 86.5801 132.01 86.6501 131.41H97.4101C110.66 131.41 121.41 120.66 121.41 107.41V60.94C121.23 61.02 121.04 61.08 120.85 61.12L108.32 64.03L100.28 65.89L97.3201 66.57C95.3001 67.04 93.2801 65.77 92.8101 63.75L92.7601 63.55C92.2901 61.53 93.5601 59.5 95.5801 59.04ZM43.7101 10.81V10.8C43.7401 10.73 43.7601 10.66 43.7901 10.59C43.8401 10.47 43.9001 10.35 43.9601 10.23C44.0601 10.06 44.1701 9.88003 44.3001 9.72003C44.3601 9.65003 44.4401 9.56003 44.5101 9.48003C44.7301 9.24003 45.0001 9.02003 45.2901 8.84003C45.6301 8.63003 46.0001 8.47003 46.4101 8.38003L46.6101 8.33003C46.6701 8.32003 46.7301 8.30003 46.7901 8.30003C46.8401 8.29003 46.9001 8.28004 46.9701 8.27003C47.1301 8.25003 47.3001 8.24003 47.4601 8.24003C47.6801 8.24003 47.8801 8.26003 48.0901 8.29003C48.2901 8.32003 48.5001 8.38003 48.7001 8.44003C48.8901 8.51003 49.0901 8.60003 49.2601 8.70003C49.3401 8.74003 49.4301 8.79003 49.5001 8.84003C49.5101 8.84003 49.5101 8.84003 49.5101 8.84003C49.6001 8.91003 49.6901 8.97003 49.7901 9.04003C50.2901 9.44003 50.7001 9.96003 50.9401 10.59C51.0201 10.77 51.0801 10.95 51.1201 11.15L54.0301 23.68L55.8901 31.74L56.5701 34.68C56.9301 36.26 56.2401 37.85 54.9401 38.69C54.7601 38.81 54.5701 38.91 54.3801 38.99C54.1701 39.07 53.9601 39.15 53.7501 39.2L53.5501 39.24C53.2601 39.3 52.9801 39.34 52.7001 39.34C52.5201 39.34 52.3501 39.33 52.1701 39.3C52.0401 39.28 51.9001 39.26 51.7501 39.22C51.7001 39.2 51.6501 39.19 51.6001 39.17C51.4501 39.13 51.3201 39.07 51.1801 39.01C51.1801 39.01 51.1801 39.01 51.1601 39.01C51.0101 38.94 50.8601 38.86 50.7101 38.77C50.6101 38.69 50.5101 38.63 50.4001 38.55C50.3901 38.54 50.3801 38.54 50.3701 38.53C50.2801 38.46 50.2001 38.38 50.1301 38.31C50.0301 38.23 49.9501 38.14 49.8701 38.04C49.7901 37.95 49.7101 37.86 49.6401 37.76C49.5701 37.65 49.5001 37.55 49.4301 37.44C49.3801 37.35 49.3301 37.25 49.2801 37.15C49.1801 36.92 49.1001 36.68 49.0401 36.42L48.3601 33.48L46.4901 25.42L43.5901 12.9C43.4301 12.18 43.4801 11.46 43.7101 10.81ZM21.7701 65.64C21.5901 66.89 20.6901 67.89 19.4701 68.19L17.2501 68.71C15.1701 69.18 13.2501 67.43 13.5101 65.31C15.2001 51.24 23.1301 38.53 35.0301 30.83C36.8301 29.67 39.2501 30.64 39.7301 32.73L40.2301 34.87C40.5201 36.1 40.0101 37.4 38.9501 38.11C29.5901 44.38 23.3001 54.47 21.7701 65.64ZM55.3101 118.51C41.2401 116.81 28.5301 108.88 20.8201 96.97C19.6701 95.18 20.6201 92.78 22.6701 92.28L24.8701 91.78C26.1001 91.49 27.4001 91.99 28.1101 93.04C34.3801 102.41 44.4701 108.71 55.6401 110.24C56.9001 110.42 57.9101 111.35 58.2001 112.57L58.7101 114.74C59.1901 116.83 57.4401 118.76 55.3101 118.51ZM78.2101 131.41C77.9101 132.13 77.3901 132.75 76.7101 133.16C76.3701 133.37 76.0001 133.53 75.5901 133.62L75.4001 133.66C74.4201 133.89 73.4101 133.72 72.5601 133.19C72.5501 133.18 72.5301 133.17 72.5201 133.16C71.8501 132.74 71.3501 132.13 71.0701 131.41C70.9901 131.23 70.9301 131.04 70.8801 130.85L67.9801 118.32L66.1201 110.28L65.4401 107.32C64.9701 105.3 66.2301 103.28 68.2601 102.81L68.4501 102.76C68.7401 102.69 69.0301 102.66 69.3001 102.66C71.0101 102.66 72.5701 103.84 72.9701 105.58L73.6501 108.53L75.5101 116.58L78.4101 129.1C78.6001 129.9 78.5101 130.71 78.2101 131.41ZM65.6401 91.05C54.5701 93.61 43.5201 86.71 40.9601 75.64C38.4001 64.57 45.2901 53.52 56.3601 50.96C67.4301 48.39 78.4801 55.29 81.0501 66.36C83.6101 77.43 76.7101 88.49 65.6401 91.05ZM100.23 76.36C100.41 75.12 101.31 74.11 102.53 73.81L104.75 73.3C106.83 72.82 108.75 74.57 108.5 76.69C106.8 90.77 98.8801 103.47 86.9701 111.17C85.2501 112.28 82.9701 111.45 82.3401 109.54L82.3301 109.52L81.7401 106.99C81.5301 105.8 82.0301 104.58 83.0501 103.9C92.4101 97.62 98.7001 87.54 100.23 76.36ZM81.9701 37.41C77.1501 34.39 71.8501 32.49 66.3601 31.75C65.1001 31.57 64.0801 30.64 63.7901 29.39L63.3001 27.26C62.8101 25.17 64.5501 23.24 66.6701 23.49C73.5701 24.3 80.2601 26.63 86.3301 30.42C92.3901 34.21 97.4501 39.2 101.2 45.03C102.36 46.83 101.39 49.25 99.3001 49.72L97.1701 50.22C95.9001 50.52 94.6101 49.97 93.8901 48.9C93.6801 48.58 93.4601 48.28 93.2501 47.97C90.2601 43.8 86.4601 40.21 81.9701 37.41Z" fill="#232531"/>
<path d="M63.6699 82.53C57.2999 84 50.9499 80.03 49.4799 73.67C47.9999 67.3 51.9699 60.95 58.3399 59.48C64.6999 58 71.0499 61.97 72.5299 68.33C73.9999 74.7 70.0299 81.05 63.6699 82.53Z" fill="#E57E25"/>
</svg>
