<svg width="90" height="82" viewBox="0 0 90 82" fill="none" xmlns="http://www.w3.org/2000/svg">
<mask id="path-1-inside-1_1_15" fill="white">
<path fill-rule="evenodd" clip-rule="evenodd" d="M44.4584 7.62785C34.2879 -2.54262 17.7983 -2.54261 7.62786 7.62786C-2.54261 17.7983 -2.54261 34.2879 7.62786 44.4584L8.16948 45L8.15307 45.0164L44.9836 81.847L45 81.8306L45.0164 81.847L81.847 45.0164L81.8306 45L82.3722 44.4584C92.5426 34.2879 92.5426 17.7983 82.3722 7.62786C72.2017 -2.54261 55.7121 -2.54261 45.5416 7.62786L45 8.16948L44.4584 7.62785Z"/>
</mask>
<path d="M7.62786 7.62786L1.971 1.97101L1.971 1.97101L7.62786 7.62786ZM44.4584 7.62785L50.1152 1.971L50.1152 1.971L44.4584 7.62785ZM7.62786 44.4584L1.971 50.1152L1.971 50.1152L7.62786 44.4584ZM8.16948 45L13.8265 50.6567L19.483 44.9999L13.8263 39.3432L8.16948 45ZM8.15307 45.0164L2.49605 39.3597L-3.16048 45.0166L2.49621 50.6733L8.15307 45.0164ZM44.9836 81.847L39.3267 87.5038L44.9843 93.1613L50.6411 87.5032L44.9836 81.847ZM45 81.8306L50.6575 76.1744L45 70.5155L39.3425 76.1744L45 81.8306ZM45.0164 81.847L39.3589 87.5032L45.0158 93.1613L50.6733 87.5038L45.0164 81.847ZM81.847 45.0164L87.5038 50.6733L93.1607 45.0164L87.5038 39.3596L81.847 45.0164ZM81.8306 45L76.1737 39.3432L70.5169 45L76.1737 50.6569L81.8306 45ZM82.3722 44.4584L76.7153 38.8015L76.7153 38.8016L82.3722 44.4584ZM82.3722 7.62786L76.7153 13.2847L76.7153 13.2847L82.3722 7.62786ZM45.5416 7.62786L51.1985 13.2847L51.1985 13.2847L45.5416 7.62786ZM45 8.16948L39.3432 13.8263L45 19.4832L50.6569 13.8263L45 8.16948ZM13.2847 13.2847C20.331 6.23844 31.7553 6.23844 38.8015 13.2847L50.1152 1.971C36.8206 -11.3237 15.2657 -11.3237 1.971 1.97101L13.2847 13.2847ZM13.2847 38.8015C6.23844 31.7553 6.23844 20.331 13.2847 13.2847L1.971 1.97101C-11.3237 15.2657 -11.3237 36.8206 1.971 50.1152L13.2847 38.8015ZM13.8263 39.3432L13.2847 38.8015L1.971 50.1152L2.51263 50.6569L13.8263 39.3432ZM13.8101 50.6731L13.8265 50.6567L2.51246 39.3433L2.49605 39.3597L13.8101 50.6731ZM50.6405 76.1901L13.8099 39.3596L2.49621 50.6733L39.3267 87.5038L50.6405 76.1901ZM39.3425 76.1744L39.3261 76.1908L50.6411 87.5032L50.6575 87.4867L39.3425 76.1744ZM50.6739 76.1908L50.6575 76.1744L39.3425 87.4867L39.3589 87.5032L50.6739 76.1908ZM76.1901 39.3596L39.3596 76.1901L50.6733 87.5038L87.5038 50.6733L76.1901 39.3596ZM76.1737 50.6569L76.1901 50.6733L87.5038 39.3596L87.4874 39.3432L76.1737 50.6569ZM76.7153 38.8016L76.1737 39.3432L87.4874 50.6569L88.0291 50.1152L76.7153 38.8016ZM76.7153 13.2847C83.7616 20.331 83.7616 31.7553 76.7153 38.8015L88.029 50.1152C101.324 36.8206 101.324 15.2657 88.029 1.971L76.7153 13.2847ZM51.1985 13.2847C58.2448 6.23844 69.6691 6.23844 76.7153 13.2847L88.029 1.971C74.7344 -11.3237 53.1794 -11.3237 39.8848 1.971L51.1985 13.2847ZM50.6569 13.8263L51.1985 13.2847L39.8848 1.971L39.3432 2.51263L50.6569 13.8263ZM38.8015 13.2847L39.3432 13.8263L50.6569 2.51263L50.1152 1.971L38.8015 13.2847Z" fill="url(#paint0_radial_1_15)" mask="url(#path-1-inside-1_1_15)"/>
<defs>
<radialGradient id="paint0_radial_1_15" cx="0" cy="0" r="1" gradientUnits="userSpaceOnUse" gradientTransform="translate(90.3269 82.3232) rotate(-138.02) scale(322.227 354.325)">
<stop stop-color="#0095E1"/>
</radialGradient>
</defs>
</svg>
